<svg xmlns="http://www.w3.org/2000/svg" xml:space="preserve" width="247.614" height="247.614" style="shape-rendering:geometricPrecision;text-rendering:geometricPrecision;image-rendering:optimizeQuality;fill-rule:evenodd;clip-rule:evenodd" viewBox="0 0 809.5 809.5"><defs><style>.fil1{fill:none}.fil0,.fil2{fill:#ec4a3f}.fil2{fill-rule:nonzero}</style></defs><g id="Слой_x0020_1"><g id="_2221563926960"><path d="M402.11 292.74c.51.9-.58 1.47-1.95 2.8-1.14 1.11-1.97 1.89-3.11 3-1.06 1.03-1.81 1.77-2.87 2.8-3.26 3.16-3.64 4.17-8.95 8.93-2.26 2.03-4.04 3.91-6.22 6.01-4.1 3.97-7.81 7.69-11.84 11.72l-14.34 15.34c-1.14 1.32-1.8 1.92-2.88 3.23-1.87 2.28-3.53 4.08-5.28 6.49-3.57 4.92-6.36 8.8-9.67 14.32-7.8 13.03-4.71 9.04-5.62 18.29-.39 3.97-4.83 3.42-7.91 2.09-3.09-1.34-5.15-3.08-7.34-4.88-1.94-1.59-3.94-3.88-5.34-6.44-3.65-6.66 11.29-24.69 15.93-29.81 1.23-1.36 1.19-1.75 2.8-3.3 1.24-1.2 1.7-2.16 2.85-3.27 3.91-3.76 14.65-15.12 17.98-17.77l43.15-40.33c1.04 1.71.19 1.78-1.29 3.22l-45.97 42.61c-1.04 1-1.68 1.96-2.69 2.98l-9.06 8.82c-7.33 7.88-15 17.12-20.41 26.72-1.1 1.94-3.37 5.99-2.67 8.62 1.01 3.84 8.17 9.88 12.04 11.57 10.93 4.76 3.98-5.19 8.67-13.08 6.34-10.68 8.44-14.54 16.38-24.61 4.15-5.26 9.3-10.78 13.91-15.77 1.89-2.04 4.07-3.75 6.05-5.73 3.9-3.91 7.63-8.06 11.63-11.92 4.39-4.24 14.25-13.2 18.01-17.33 1.2-1.32 1.71-2.05 2.9-3.21l2.23-2.07c.8-.35.31-.3.87-.01zm102.14-10.61c1.29-1.01 3.54-2.45 4.44-3.95-2.69 1.08-4.72 3.01-7.6 4.04 3.33-2.58 5.63-3.91 8.8-6.94l1.38-1.46c-2.95 1.83-6.96 4.88-9.93 6l7.91-6.07c1.9-1.69 1.58-.69 2.53-2.59-3.2 1.46-5.81 4.19-9.14 5.6l8.8-6.93c.75-.79.6-.66 1.31-1.27 1.39-1.2.69-.07 1.58-1.76-2.33 1.18-6.15 4.69-10.35 6.89 1.54-.56 9.84-7.22 10.91-9.52l-4.66 3.14c-1.5 1.09-2.91 2.08-4.47 2.92l10.7-8.89c1-.98.83-.75 1.42-1.95-3.42 2.04-5.74 4.77-9.28 6.62 1.85-1.64 4.58-3.61 6.33-5.36 1.21-1.22 1.57-1.78 2.81-2.84 1.5-1.29 2.23-1.43 3.1-3.26-2.71 1.73-4.64 3.76-7.22 5.68-2.26 1.69-5.21 4.02-7.52 5.2 3.26-1.6 16.42-13.86 19.12-16.72 7.33-7.75 22.72-27.38 25.14-36.03l10.05 4.59c-.19 6.4-6.16 16.62-9.02 20.96-9.21 13.98-32.94 39-47.14 43.89zm-255.1-64.75 9.9-4.87c1.6 5.52 10.03 17.73 13.83 22.75l8.34 9.96c3.47 4.45 18.7 18.5 22.19 20.22-2.31-1.18-4.95-3.28-7.27-5.02-2.7-2.01-4.67-4.01-7.48-5.86.83 1.76 1.41 1.83 2.88 3.06 1.34 1.12 1.73 1.75 3.04 3.04 1.69 1.68 4.51 3.8 6.34 5.36-3.26-1.67-5.6-4.51-8.83-6.24.82 1.76 4.02 4.32 5.59 5.64 1.27 1.06 5.07 4.42 6.07 4.82-3.08-1.62-6.64-4.9-9.14-6.08.6 1.29.03.45 1.03 1.56.27.31 1 .88 1.42 1.21 1.89 1.46 7 6.21 8.49 6.75-4.35-2.23-7.84-5.61-10.37-6.9.85 1.61 1.06 1.18 2.47 2.6 2.51 2.54 5.37 4.27 8.12 6.7-3.07-1.21-5.01-3.58-8.04-4.93.87 1.75.89 1.13 2.54 2.59l7.92 6.07c-2.93-1.14-5.39-3.51-8.32-4.7.76 1.53 3.11 3.04 4.52 4.1 1.46 1.11 3.31 2.39 4.72 3.38-2.96-.97-5.36-3.17-8.25-4.44.58 1.05-.14.08.86 1.12l3.53 2.83c-4.9-1.65-14.7-8.88-18.03-11.9l-3.91-3.49c-5.91-5.65-4.85-4.13-11.6-11.55l-13.41-16.68c-2.8-4.32-9.02-14.74-9.13-21.13zm82.93.48c7.57-.2 10.15-.92 14.45-5.18 6.8-6.74 3.59-12.74 5.62-13.57 1.08-.44 3.48 2.92 5.71 4.83l10.51 10.87c1.85 1.72 3.22 3.62 4.99 5.49 8.96 9.46 4.63 3.64 8.5 12.87 2.03 4.83 4.9 9.7 7.45 13.49 8.38 12.45 10.18 13.92 18.67 24.07l10.19 11.19 49.2 46.36c11.8 11.69 26.28 26.21 33.11 41.5 1.52 3.4 1.4 4.88-.42 7.8-3.67 5.9-16.16 14.98-19.42 9.86-.95-1.5-.13-7.13-.89-9.99-.64-2.4-2.39-5.01-3.5-6.99-2.59-4.61-5.39-9.1-8.26-13.13-5.36-7.52-7.19-8.88-11.88-14.72-.88-1.09-1.4-1.83-2.46-2.79-2.31-2.1-3.12-3.41-5.05-5.42l-21.42-21.32c-1.89-1.86-3.48-3.28-5.39-5.09l-5.15-5.32c-7.03-7.2-14.39-14.1-21.7-21.06-11.16-10.63-31.9-31.32-42.15-42.47-3.51-3.82-7.14-6.98-10.6-10.79-2.23-2.45-8.89-7.94-10.11-10.46zm75.05 47.61c-.44-1.84-.4-.43.42-1.75l3.3-4.17c1.43-1.82 2.76-3.43 4.17-5.43 4.86-6.88 11.66-16.61 14.16-25.12 1.29-4.4 1.27-2.93 3.93-5.64l9.66-9.97c1.67-1.64 3.1-3.19 4.7-4.9 14.32-15.39 8.65-9.16 11.83-1.31 3.18 7.83 9.23 10.51 18.12 10.69-.62 1.24-12.46 12.86-14.65 15.08l-40.98 41.48c-2.49 2.49-2.36 3.34-4.18 2.81.32-1.1 25.57-25.97 28.59-29.01 4.9-4.94 9.34-9.63 14.19-14.61 2.96-3.03 13.06-12.56 14.01-14.44-5.84-.42-9.64-2.89-12.52-5.85-3.44-3.54-4.27-6.54-5.25-12.56l-14.36 14.73c-8.7 9.23-8.32 10.15-6.1 20.22-8.91-1.67-12.38 7.72-16.11 13.43l-9.34 12.9c-.89 1.18-2.19 3.48-3.59 3.42zm66.96-84.88c1.07-.84 1.08-1.09 2.21-1.95 9.06 5.51 14.7 8.72 20.37 19.5l-4.4 4.22c.25-6.19-2.27-11.43-5.27-14.13-1.46-1.31-3.51-2.61-6.04-3.55-2.36-.87-6.56-.55-8.09-1.39-.42-2.14-.32-1.5 1.22-2.71zm-161.16 17.46c5.48-10.53 11.31-13.96 20.28-19.42 4.14 3.29 3.76 2.89 3.42 4.64-1.51.85-19.46-.81-19.56 19.21l-4.14-4.44zm176.42 4.8c4.5 4.99 17.62 12.26 27.53 12.28 6.6.02 21.26-7.22 25.84-5.3-6.99 1.64-3.15-.68-14.35 3.62-18.28 7.03-24.82 1.36-40.28-6.8-.32.3-.31.28-.7.73l-1.71 1.97c1.42-3 2.84-5.4 1.94-9.92-1.99-9.92-14.36-14.02-21.11-8.2l2.22-2.08c.43-.42.33-.32.64-.7-1.26-3.65-4.08-14.36-6.13-16.6-2.24.07-2.85 1.12-4.22 2.13 1.14-1.88 2.75-3.99 5.09-4.64 1.82 3.12 7.64 14.65 8.68 17.87 8.03-1.03 13.24 1.88 15.9 8.51 1.08 2.69.68 4.31.7 7.12zm-152.59-15.64c1.02-3.25 6.81-14.68 8.68-17.87 2.34.7 3.99 2.75 5.1 4.67-1.4-1.04-1.98-2.05-4.24-2.15-2.19 2.26-4.86 12.88-6.12 16.61 1.05 1.3 2.33 1.91 2.83 2.78-4.77-4.24-12.46-3.04-16.99.93-1.6 1.4-3.66 4.53-4.18 7.65-.74 4.45.61 6.63 2.03 9.55l-2.45-2.74c-7.78 4.06-14.96 9.69-26.17 9.98-5.5.14-10.41-1.81-14.73-3.42-5.32-1.98-7.83-2.7-13.48-3.55 10.78-.47 18.4 6.84 29.64 5.11 8.81-1.36 19.17-7.09 23.47-11.91.08-.19-1.68-17.77 16.6-15.64zm1.68-7.72c-1.4-1.09-3.37-2.99-4.36-4.11-2.99.96-5.41 2.42-7.77 3.99l-6.85 5.38c-3.26 3.08-7.66 8.59-9.88 14.35 1.76.91 4.12 3.58 4.82 5.06-3.28 3.13-10.76 5.84-15.3 6.89-16.22 3.76-25.24-7.73-37.34-2.88-5.06 2.03-10.3 5.55-15.45 7.25 0 13.73 10.11 25.71 17.61 35.34l4.05 4.69c1.79 1.66 2.77 3.09 4.38 4.79 6.14 6.48 28.24 27.84 43.42 27.81 1.27-.52 4.39-7.74 5.09-9.02 1.56-2.86 3.94-6.65 4.52-9.92 2.14-12.1-8.54-19.87-.99-38.47 1.23-3.03 3.96-8.19 5.79-10.19l29.43 29.75c3.93 3.92 25.98 26.87 29.69 29.66l-40.76 38.63c-1.15 1.03-2.13 1.66-3.35 2.78l-18.23 18.41c-3.53 4.48-7.66 8.75-11.06 13.36-3.27 4.43-6.82 9.48-9.26 15.19-1.61 3.77-2.13 5.72-.15 9.68 3.12 6.24 15.01 16.62 22.73 12.9 3.8-1.83 2.73-5.2 2.84-9.54.19-7.59 13.31-24.28 18.07-30.65 1.74-2.33 3.85-4.4 5.63-6.59l49.02-48.8c2.33 1.46 4.36 3.92 6.41 5.92l24.61 24.24c2.38 2.03 3.75 4.17 5.95 6.26 1.14 1.09 2.17 1.72 3.24 2.86 4.95 5.28 9.9 10.41 14.41 16.13 5.49 6.95 10.23 13.65 14.79 21.85 1.61 2.89 3.2 4.96 3.3 8.78.12 4.49-1.02 7.6 2.85 9.53 5.92 2.95 14.67-3.67 17.36-6.03 1.69-1.48 4.09-4.31 5.37-6.86 1.99-3.97 1.46-5.9-.16-9.67-2.45-5.71-5.96-10.75-9.26-15.19-3.41-4.59-7.55-8.91-11.06-13.37-1.05-1.33-1.61-1.84-3.01-3.1-3.13-2.82-5.92-6.43-8.98-9.34-1.15-1.09-2.09-1.76-3.24-2.87-1.16-1.12-1.84-2.05-2.99-3.1l-6.49-5.74c-1.36-1.03-1.93-1.9-3.21-2.89-7.25-5.59-21.9-19.98-28.42-26.54-2.13-2.14-3.84-4.26-5.98-6.23 3.51-2.63 25.76-25.69 29.49-29.42l18.23-18.85c1.29-1.36 2.57-2.22 3.87-3.54 2.22-2.27 5.28-5.86 7.53-7.6 4.96 5.24 8.57 16.43 8.57 23.85 0 8.15-4.94 17.31-3.83 24.43.73 4.7 4.54 10.52 6.79 14.65.6 1.11 1.81 4.24 2.87 4.67 15.1.08 37.09-21.2 43.19-27.6 6.91-7.24 26.21-28.53 26.26-44.51l-3.41-1.95c-15.13-7.8-15.57-8.89-29.67-4.44-6.85 2.16-11.95 3.16-19.4 1.57-4.47-.96-12.98-4.5-15.65-6.96.77-1.49 3.03-4.13 4.83-5.06-3.15-8.65-9.35-14.92-16.47-19.55-2.32-1.51-4.93-3.2-8.03-4.17-1.42 1.55-2.79 2.82-4.36 4.16-2.89-3.35-3.79-10.58-6.55-12.59-2.7.67-9.76 9.69-12.27 11.86-2.26 1.95-10.45 10.12-11.23 13.2 2.99 1.56 10.77 3.62 12.82 5.62-1.25 1.86-17.44 17.88-20.58 21.53-2.34 2.73-5.32 4.09-6.45 7.96-2.03 6.95-6.08 13.47-9.58 18.75-2.15 3.24-9.1 13.67-12.47 16.53l-12.31-16.25c-3.21-4.93-7.71-11.82-9.65-18.68-1.12-3.99-3.75-5.06-6.14-7.84-2.24-2.6-4.3-5.01-7.06-7.35l-13.94-14.65c2.09-2.06 9.89-3.99 12.82-5.64-.73-2.9-3.15-4.77-4.97-6.76l-12.07-12.35c-1.56-1.75-4.07-5.32-6.44-5.91-2.62 1.92-3.82 9.19-6.54 12.54z" class="fil0"/><path d="M335.08 219.17c.95 2.28 6.67 6.93 9.35 9.53 3.3 3.21 6.1 6.55 9.32 9.87l67.13 66.8c3.34 3.3 6.44 6.12 9.85 9.36 4.61 4.37 9.51 10.05 14.27 14.52 7.54 7.08 16.48 17.16 22.58 25.4 2.81 3.79 12.94 18.82 13.73 24.22.31 2.13-.94 7.62 1.18 8.47 2.32.93 6.17-1.08 7.51-1.94 3.58-2.3 7.94-5.9 9.67-9.56 3.14-6.63-13.12-24.95-16.92-29.81l-31.32-31.07c-.88-.78-1.55-1.22-2.4-1.99L434 299.21c-1.68-1.42-3.28-3.26-4.85-4.73-12.63-11.88-17.6-17.17-28.08-29.51-6.22-7.32-10.61-14.16-15.86-22.54-1.27-2.03-2.76-3.97-4.43-5.18-2.25-1.63-3.99-2.15-7.46-1.53 2.03-9.53 2.88-11.15-6.28-20.49l-7.06-7.33c-1.8-1.97-4.97-5.62-7.14-7.13-1.03 6.29-1.93 9.22-5.46 12.78-2.75 2.78-6.69 5.39-12.31 5.62z" class="fil0"/><path d="M504.24 282.14c14.2-4.89 37.93-29.91 47.14-43.89 2.86-4.34 8.82-14.56 9.02-20.96l-10.05-4.59c-2.42 8.65-17.81 28.28-25.14 36.03-2.7 2.86-15.86 15.12-19.12 16.72 2.31-1.18 5.26-3.51 7.52-5.2 2.58-1.92 4.51-3.95 7.22-5.68-.88 1.83-1.6 1.98-3.1 3.26-1.24 1.06-1.6 1.62-2.81 2.84-1.75 1.75-4.48 3.72-6.33 5.36 3.54-1.85 5.86-4.58 9.28-6.62-.6 1.2-.43.97-1.42 1.95l-10.7 8.89c1.55-.84 2.97-1.83 4.47-2.92l4.66-3.14c-1.07 2.3-9.37 8.96-10.91 9.52 4.2-2.21 8.02-5.71 10.35-6.89-.89 1.69-.19.56-1.58 1.76-.7.61-.55.48-1.31 1.27l-8.8 6.93c3.32-1.41 5.94-4.15 9.14-5.6-.95 1.9-.63.9-2.53 2.59l-7.91 6.07c2.96-1.12 6.98-4.17 9.93-6l-1.38 1.46c-3.16 3.03-5.46 4.36-8.8 6.94 2.88-1.03 4.91-2.97 7.6-4.04-.9 1.5-3.15 2.94-4.44 3.95zM303.73 270.25c-1-.4-4.8-3.76-6.07-4.82-1.58-1.33-4.78-3.88-5.59-5.64 3.23 1.73 5.57 4.58 8.83 6.24-1.83-1.56-4.65-3.68-6.34-5.36-1.3-1.3-1.7-1.92-3.04-3.04-1.47-1.23-2.04-1.29-2.88-3.06 2.81 1.85 4.78 3.85 7.48 5.86 2.33 1.73 4.96 3.84 7.27 5.02-3.49-1.72-18.72-15.77-22.19-20.22l-8.34-9.96c-3.8-5.01-12.23-17.23-13.83-22.75l-9.9 4.87c.11 6.39 6.33 16.81 9.13 21.13l13.41 16.68c6.75 7.41 5.69 5.89 11.6 11.55l3.91 3.49c3.33 3.03 13.13 10.25 18.03 11.9l-3.53-2.83c-.99-1.04-.27-.07-.86-1.12 2.89 1.27 5.28 3.48 8.25 4.44-1.41-.99-3.26-2.28-4.72-3.38-1.4-1.06-3.75-2.58-4.52-4.1 2.93 1.18 5.39 3.55 8.32 4.7l-7.92-6.07c-1.64-1.46-1.66-.84-2.54-2.59 3.02 1.35 4.96 3.71 8.04 4.93-2.75-2.44-5.61-4.16-8.12-6.7-1.41-1.43-1.62-.99-2.47-2.6 2.53 1.29 6.01 4.67 10.37 6.9-1.5-.54-6.6-5.29-8.49-6.75-.42-.32-1.14-.9-1.42-1.21-1-1.12-.43-.28-1.03-1.56 2.5 1.17 6.06 4.45 9.14 6.08zM335.08 219.17c5.62-.24 9.56-2.84 12.31-5.62 3.53-3.56 4.44-6.49 5.46-12.78 2.17 1.51 5.34 5.16 7.14 7.13l7.06 7.33c9.16 9.34 8.32 10.96 6.28 20.49 3.47-.63 5.21-.1 7.46 1.53 1.67 1.21 3.16 3.15 4.43 5.18 5.25 8.37 9.63 15.21 15.86 22.54 10.48 12.33 15.45 17.63 28.08 29.51 1.56 1.47 3.16 3.31 4.85 4.73l15.03 13.76c.84.77 1.51 1.21 2.4 1.99l31.32 31.07c3.8 4.86 20.06 23.18 16.92 29.81-1.74 3.67-6.09 7.26-9.67 9.56-1.34.86-5.19 2.87-7.51 1.94-2.13-.86-.87-6.34-1.18-8.47-.79-5.4-10.92-20.43-13.73-24.22-6.1-8.24-15.04-18.32-22.58-25.4-4.76-4.47-9.66-10.15-14.27-14.52-3.41-3.24-6.5-6.06-9.85-9.36l-67.13-66.8c-3.22-3.32-6.02-6.66-9.32-9.87-2.68-2.61-8.4-7.26-9.35-9.53zm-3.01-1.3c1.23 2.52 7.89 8.01 10.11 10.46 3.46 3.8 7.09 6.97 10.6 10.79 10.26 11.16 30.99 31.84 42.15 42.47 7.31 6.96 14.67 13.85 21.7 21.06l5.15 5.32c1.91 1.81 3.49 3.23 5.39 5.09l21.42 21.32c1.93 2.02 2.74 3.32 5.05 5.42 1.06.96 1.58 1.7 2.46 2.79 4.69 5.84 6.52 7.2 11.88 14.72 2.87 4.03 5.67 8.52 8.26 13.13 1.11 1.98 2.86 4.59 3.5 6.99.76 2.86-.06 8.48.89 9.99 3.25 5.13 15.74-3.96 19.42-9.86 1.82-2.92 1.94-4.4.42-7.8-6.83-15.29-21.31-29.81-33.11-41.5l-49.2-46.36-10.19-11.19c-8.49-10.15-10.29-11.62-18.67-24.07-2.55-3.79-5.43-8.67-7.45-13.49-3.87-9.22.46-3.41-8.5-12.87-1.77-1.87-3.14-3.77-4.99-5.49l-10.51-10.87c-2.23-1.91-4.63-5.27-5.71-4.83-2.03.83 1.18 6.83-5.62 13.57-4.3 4.26-6.88 4.99-14.45 5.18z" class="fil1"/><path d="M402.11 292.74c-.57-.28-.07-.33-.87.01l-2.23 2.07c-1.19 1.16-1.69 1.89-2.9 3.21-3.76 4.14-13.62 13.09-18.01 17.33-4 3.86-7.73 8.01-11.63 11.92-1.98 1.98-4.16 3.69-6.05 5.73-4.61 4.99-9.76 10.51-13.91 15.77-7.94 10.06-10.04 13.93-16.38 24.61-4.69 7.9 2.26 17.84-8.67 13.08-3.87-1.69-11.03-7.73-12.04-11.57-.7-2.64 1.57-6.69 2.67-8.62 5.42-9.6 13.09-18.84 20.41-26.72l9.06-8.82c1.01-1.01 1.65-1.98 2.69-2.98l45.97-42.61c1.48-1.44 2.33-1.51 1.29-3.22l-43.15 40.33c-3.33 2.65-14.07 14.01-17.98 17.77-1.16 1.11-1.62 2.08-2.85 3.27-1.61 1.55-1.57 1.94-2.8 3.3-4.63 5.12-19.57 23.14-15.93 29.81 1.4 2.56 3.4 4.84 5.34 6.44 2.19 1.8 4.25 3.54 7.34 4.88 3.07 1.33 7.51 1.88 7.91-2.09.92-9.25-2.18-5.26 5.62-18.29 3.31-5.52 6.09-9.41 9.67-14.32 1.75-2.41 3.41-4.21 5.28-6.49 1.07-1.31 1.74-1.91 2.88-3.23l14.34-15.34c4.03-4.03 7.74-7.75 11.84-11.72 2.18-2.1 3.96-3.99 6.22-6.01 5.31-4.76 5.69-5.77 8.95-8.93 1.06-1.03 1.81-1.77 2.87-2.8 1.14-1.11 1.97-1.89 3.11-3 1.36-1.33 2.46-1.9 1.95-2.8zM407.13 265.47c1.4.06 2.7-2.25 3.59-3.42l9.34-12.9c3.72-5.7 7.19-15.1 16.11-13.43-2.23-10.07-2.6-10.99 6.1-20.22l14.36-14.73c.98 6.01 1.81 9.02 5.25 12.56 2.88 2.96 6.68 5.44 12.52 5.85-.95 1.88-11.05 11.4-14.01 14.44-4.85 4.97-9.29 9.67-14.19 14.61-3.02 3.04-28.27 27.91-28.59 29.01 1.82.53 1.69-.32 4.18-2.81l40.98-41.48c2.19-2.22 14.03-13.84 14.65-15.08-8.89-.19-14.94-2.86-18.12-10.69-3.18-7.85 2.49-14.07-11.83 1.31-1.6 1.72-3.03 3.26-4.7 4.9l-9.66 9.97c-2.66 2.71-2.63 1.23-3.93 5.64-2.5 8.51-9.31 18.24-14.16 25.12-1.41 2-2.73 3.61-4.17 5.43l-3.3 4.17c-.82 1.32-.86-.09-.42 1.75zM458.98 173.99c1.37-1.01 1.98-2.06 4.22-2.13 2.05 2.24 4.88 12.96 6.13 16.6-.31.38-.21.28-.64.7l-2.22 2.08c6.75-5.82 19.12-1.72 21.11 8.2.91 4.52-.52 6.91-1.94 9.92l1.71-1.97c.39-.45.38-.43.7-.73 15.46 8.17 22 13.83 40.28 6.8 11.2-4.3 7.36-1.98 14.35-3.62-4.58-1.92-19.25 5.32-25.84 5.3-9.9-.02-23.02-7.29-27.53-12.28-.01-2.81.38-4.43-.7-7.12-2.66-6.64-7.87-9.54-15.9-8.51-1.04-3.22-6.85-14.75-8.68-17.87-2.34.65-3.95 2.76-5.09 4.64zM336.75 187.21c-18.28-2.12-16.53 15.45-16.6 15.64-4.31 4.82-14.66 10.55-23.47 11.91-11.24 1.73-18.86-5.58-29.64-5.11 5.66.85 8.17 1.56 13.48 3.55 4.32 1.61 9.23 3.56 14.73 3.42 11.21-.29 18.39-5.92 26.17-9.98l2.45 2.74c-1.42-2.93-2.77-5.1-2.03-9.55.52-3.12 2.58-6.25 4.18-7.65 4.52-3.97 12.22-5.17 16.99-.93-.5-.87-1.78-1.48-2.83-2.78 1.26-3.73 3.93-14.35 6.12-16.61 2.26.1 2.84 1.12 4.24 2.15-1.1-1.91-2.76-3.97-5.1-4.67-1.87 3.2-7.66 14.62-8.68 17.87z" class="fil1"/><path d="M472.87 183.3c1.53.83 5.72.51 8.09 1.39 2.53.94 4.58 2.23 6.04 3.55 3 2.7 5.52 7.93 5.27 14.13l4.4-4.22c-5.66-10.77-11.31-13.99-20.37-19.5-1.13.87-1.14 1.12-2.21 1.95-1.54 1.21-1.63.56-1.22 2.71zM312.92 198.05l4.14 4.44c.1-20.02 18.05-18.36 19.56-19.21.34-1.75.72-1.36-3.42-4.64-8.97 5.45-14.8 8.89-20.28 19.42z" class="fil1"/><path d="M91.85 597.83c.2 1.72.02 3.13-.52 4.21-.52 1.08-.79 2.08-.79 2.98 0 .23.05.5.15.79.1.29.15.58.15.94 0 1.14-.07 2.22-.22 3.24s-.22 2.05-.22 3.01c0 .97.1 1.93.3 2.89.2.99.57 1.99 1.17 3.01-.2.91-.32 2.05-.37 3.42-.05 1.37.32 2.34 1.09 2.92-.2.91-.32 1.61-.37 2.13-.05.53.17 1.17.67 1.96-.1.82-.27 1.58-.52 2.34-.25.73-.07 1.43.52 2.13-.4 1.49-1.22 2.51-2.48 3.07-1.27.58-2.38 1.26-3.35 2.08-.37.09-.67.06-.87-.18-.2-.23-.47-.41-.87-.53-.2.23-.42.5-.65.76-.25.29-.57.44-.94.44-.97-.67-1.66-.99-2.04-.94-.4.06-.7-.03-.89-.26-.77-1.37-1.29-2.22-1.59-2.57-.3-.35-.57-.67-.87-1.02-.3-.35-.57-.7-.8-1.11-.25-.41-.37-.94-.37-1.64 0-.91.1-1.67.3-2.31.17-.61.05-1.34-.45-2.13.97-.91 1.32-1.84 1.02-2.84-.3-.97-.87-1.72-1.74-2.31.97-.35 1.27-.91.94-1.7-.35-.82-.52-1.49-.52-2.08 0-.67.17-1.34.52-1.96.32-.64.5-1.35.5-2.13-.27-1.37-.3-2.37-.07-3.01.25-.61.37-1.29.37-1.96 0-1.26.17-2.28.52-3.1.32-.79.4-1.93.2-3.42-.57-.79-1.34-1.2-2.31-1.2-.6 0-1.14.12-1.69.35-.52.23-1.09.35-1.66.35-.5 0-.92-.06-1.32-.18-.37-.12-.82-.23-1.32-.35-.77-.23-1.59-.32-2.46-.26-.87.06-1.71-.03-2.48-.26-1.17-.2-2.38-.5-3.63-.85-1.27-.35-2.48-.06-3.65.85-.37-.44-1.09-.55-2.11-.32-1.02.21-1.81 0-2.39-.7-.4 0-.72.15-.97.44-.22.29-.6.41-1.07.41-.6 0-1.29-.2-2.11-.67-.84-.47-1.54-.85-2.11-1.2-.5-.47-1.04-.7-1.69-.76-.62-.06-1.19-.32-1.66-.79-.5 0-.82.12-1.02.35-.2.23-.45.47-.72.67-1.17-.32-1.91-.47-2.19-.41-.3.06-.6.09-.89.09-.87 0-1.71-.12-2.53-.35-.82-.23-1.66-.35-2.56-.35-.37 0-.77.09-1.14.26-.4.18-.79.21-1.17.09-.3.12-.6.26-.89.44-.27.18-.57.23-.87.23-.17 0-.55-.09-1.09-.32-.52-.23-1.14-.53-1.82-.88-.67-.32-1.29-.67-1.81-1.02-.55-.32-.89-.55-1.09-.67-.5.56-.65 1.46-.52 2.66.15 1.2.22 2.13.22 2.81 0 .7-.05 1.34-.15 1.99-.1.61-.12 1.29-.12 1.96 0 1.26.27 2.16.87 2.75-.1 1.37-.18 2.98-.22 4.88-.05 1.87-.07 3.83-.07 5.82 0 1.99.05 3.89.15 5.64.1 1.78.3 3.3.57 4.56.1.44.22.85.37 1.2.15.32.22.79.22 1.37 0 .91-.12 1.81-.37 2.72-.25.94-.45 1.84-.64 2.75-.5-.23-.82-.15-.95.26-.15.41-.42.7-.82.94-.37.23-.94.35-1.66.35s-1.34.12-1.82.35c-.4.2-.77.41-1.17.58-.4.18-.77.38-1.17.61-.77-.35-1.49-.73-2.11-1.14-.62-.38-1.34-.76-2.11-1.11-.2-.91-.42-1.78-.65-2.63-.25-.88-.37-1.75-.37-2.66 0-.47.12-.85.37-1.11.22-.29.35-.67.35-1.11 0-1.05-.17-1.67-.5-1.9-.35-.23-.65-.47-.87-.76-.25-.29-.35-.79-.3-1.46.05-.7.47-1.9 1.24-3.6-.1-.58-.25-1.05-.45-1.46-.2-.41-.37-.88-.57-1.46.2-.55.4-1.32.65-2.22.25-.91.02-1.55-.65-1.87.1-.23.2-.5.27-.79.1-.26.15-.58.15-.94 0-.47-.12-.76-.35-.94-.25-.18-.37-.44-.37-.79 0-.32.05-.67.15-1.02.1-.32.15-.73.15-1.2 0-1.02-.05-1.93-.15-2.72-.1-.82.1-1.72.57-2.75-.47-.58-.72-1.2-.72-1.9 0-.55.05-1.05.15-1.43.1-.41.15-.91.15-1.46 0-.47-.05-.88-.15-1.2-.1-.35-.15-.7-.15-1.02v-2.92c0-.79-.07-1.58-.22-2.31-.15-.76-.22-1.52-.22-2.31 0-.58.12-1.11.37-1.64.25-.5.37-1.05.37-1.64 0-.32-.05-.67-.15-1.02-.1-.32-.15-.67-.15-1.02 0-.56.1-1.05.3-1.46.2-.38.32-.82.42-1.29.2-1.26.22-2.6.07-4.09-.15-1.49-.3-2.86-.5-4.12.47-.91.89-1.78 1.24-2.66.32-.85.5-1.78.5-2.81 0-.82-.05-1.55-.15-2.25-.1-.67-.15-1.35-.15-2.05 0-.79.12-1.55.37-2.22.25-.67.37-1.37.37-2.05 0-.58-.07-1.17-.22-1.81-.15-.61-.22-1.23-.22-1.78 0-1.26.1-2.43.3-3.54.2-1.08.1-2.19-.3-3.33.57-.44.85-1.02.8-1.7-.05-.7-.07-1.38-.07-2.08 0-.32.05-.64.15-.94.1-.29.15-.53.15-.76 0-.59-.05-1.02-.15-1.37-.1-.35-.15-.79-.15-1.37 0-1.49.05-3.01.15-4.53.1-1.55-.27-3.01-1.17-4.39.6-.91.72-2.08.37-3.51-.35-1.43-.7-2.6-1.09-3.51.6-.67.84-1.49.79-2.4-.05-.91.02-1.81.22-2.75.67-.56.97-.99.87-1.29-.1-.26-.05-.58.15-.94.2-.23.45-.44.72-.58.3-.18.55-.38.75-.61.77-.79 1.42-1.26 1.96-1.37.52-.12 1.07-.09 1.59.09.55.18 1.09.44 1.69.79.57.32 1.24.5 2.04.5.17.7.4 1.17.65 1.46.25.29.47.53.65.76.2.23.37.58.52 1.02.15.47.22 1.11.22 1.9.47 1.14.67 1.81.57 2.05-.1.23-.15.47-.15.7 0 1.26.05 2.43.15 3.51.1 1.08.15 2.25.15 3.51.2 2.05.17 3.59-.08 4.62-.25 1.02.02 2.1.79 3.24-.47 0-.67.26-.57.79.1.5-.05.82-.45.94.3 1.72.4 3.36.3 4.97-.1 1.61-.25 3.19-.45 4.8-.17 1.61-.35 3.16-.5 4.71-.15 1.55-.07 3.07.22 4.53-.6.35-.87 1.05-.87 2.07 0 .56.02 1.17.12 1.78.1.64.15 1.23.15 1.81 0 .79-.05 1.55-.15 2.31-.1.73-.12 1.52-.12 2.31 0 .35.02.67.12 1.02.1.35.15.73.15 1.2s-.2.67-.57.61c-.4-.06-.6.15-.6.59 0 .79.07 1.58.22 2.31.15.76.22 1.52.22 2.31v4.65c.57.09 1.12.06 1.59-.09.5-.18 1.04-.35 1.69-.53.62-.18 1.34-.18 2.19 0 .82.18 1.86.64 3.13 1.46.87-.47 1.99-.7 3.33-.7 1.07 0 2.04.18 2.93.53.87.35 1.79.53 2.76.53.3 0 .6.03.94.06.35.06.6.26.79.61 1.07.23 2.11.32 3.13.26s2.06-.09 3.13-.09c.87 0 1.76.18 2.63.5.87.35 1.74.53 2.61.53.97 0 2.11-.12 3.43-.35 1.32-.23 2.36.12 3.13 1.02 1.27-.32 2.19-.47 2.76-.41.6.06 1.42.53 2.48 1.46 1.27-.58 2.53-.85 3.85-.79 1.32.06 2.63.09 4 .09.6 0 .94-.18 1.09-.5.15-.35.27-.82.37-1.37.67.32 1.19.53 1.52.58.35.06.85-.03 1.54-.26.47-.67.72-1.43.72-2.31 0-.85-.12-1.7-.37-2.57-.22-.85-.5-1.72-.79-2.63-.3-.94-.47-1.72-.57-2.4-.2-1.05-.25-2.1-.15-3.19a6.84 6.84 0 0 0-.45-3.16c0-.35.07-.67.22-.94.15-.29.27-.61.37-.96.2-.56.25-1.08.15-1.52-.1-.47-.15-.99-.15-1.55 0-.35.08-.64.22-.85.12-.23.2-.53.2-.88.2-1.26.35-2.25.45-2.98.1-.76.15-1.46.15-2.16 0-.79.02-1.61.07-2.46.05-.88.07-1.84.07-2.92 0-1.08-.02-2.1-.07-3.1-.05-.97-.07-1.61-.07-1.96 0-.35-.05-.67-.15-1.02-.1-.35-.15-.76-.15-1.2 0-.58.12-1.11.37-1.64.22-.5.35-1.05.35-1.61 0-.47-.08-.91-.2-1.29-.15-.41-.22-.91-.22-1.46 0-.59.05-1.2.15-1.9.1-.67.12-1.32.12-1.87 0-.91-.12-1.72-.42-2.4-.3-.7-.45-1.43-.45-2.22 0-.58.05-1.14.15-1.72.1-.56.15-1.14.15-1.72 0-1.23-.05-2.43-.15-3.6-.1-1.14-.37-2.28-.87-3.42.3-1.26.55-1.96.72-2.13.2-.18.4-.44.6-.76 0-1.37.35-2.25 1.09-2.66.72-.41 1.09-.99 1.09-1.81.77-.12 1.47-.23 2.11-.41.62-.18 1.32-.26 2.11-.26 1.34 0 2.28.38 2.83 1.11.52.73 1.19 1.05 1.96.94.1.82.35 1.46.72 1.99.4.5.75 1.05 1.02 1.61.3.58.42 1.23.37 1.99-.05.73-.42 1.61-1.09 2.63.3 3.45.4 6.93.3 10.47-.1 3.54-.15 7.01-.15 10.44v1.37c0 .47-.05.96-.15 1.55-.1.35-.25.64-.45.94-.17.29-.27.67-.27 1.11.2 1.02.22 1.64.15 1.81-.1.18-.15.35-.15.59 0 .58.13 1.02.35 1.37.25.35.37.73.37 1.2 0 .79-.1 1.55-.3 2.22-.2.7-.27 1.49-.27 2.4 0 .93-.3 1.61-.89 2.07.3 1.26.5 2.6.6 4 .1 1.43.25 2.78.42 4.04.2.58.37 1.02.52 1.37.15.35.22.79.22 1.37 0 .67-.12 1.4-.37 2.13s-.37 1.52-.37 2.31c0 .35.1.7.3 1.02.2.35.35.76.45 1.2.1.23.12.53.07.88-.05.32-.07.61-.07.85 0 .56.07 1.11.2 1.64.15.5.27.97.37 1.34.1.41.12.88.07 1.37-.05.53-.27 1.05-.65 1.64.17.91.35 1.75.5 2.48.15.73.47 1.52.94 2.31.3.58.42 1.37.37 2.4-.05 1.02.17 1.99.65 2.92 0 .79-.17 1.34-.57 1.61-.4.29-.67.73-.87 1.29zM193.62 638.61c-.7-.82-1.17-1.4-1.47-1.81-.3-.38-.47-.88-.57-1.43-1.57-.82-2.61-2.02-3.13-3.63-.55-1.58-1.34-3.01-2.41-4.27v-2.22c-.47-.58-.94-1.14-1.39-1.72-.42-.56-.89-1.08-1.37-1.55.37-1.34.27-2.57-.3-3.68a11.26 11.26 0 0 1-1.17-3.51c-.47-.44-.89-.94-1.24-1.43a7.45 7.45 0 0 1-.79-1.81c-.67-.12-1.47-.15-2.34-.09-.87.06-1.74.15-2.61.26-.87.12-1.71.15-2.56.09-.82-.06-1.47-.38-1.96-.94-.77-.12-1.57-.23-2.38-.35-.85-.12-1.64-.29-2.41-.53-2.14.58-4.12.76-5.96.53-1.86-.23-3.45 0-4.82.67-.37-.23-.82-.35-1.29-.41-.5-.06-.89-.32-1.17-.79-.97.7-1.74.88-2.26.53-.55-.35-1.29-.53-2.26-.53-.4 0-.77.09-1.17.26-.37.18-.77.38-1.17.61-.77-.35-1.57-.64-2.39-.88-.85-.2-1.69-.32-2.56-.32-.47 0-.89.12-1.24.32-.32.23-.7.35-1.09.35-.47 0-.94-.09-1.37-.26-.45-.18-.89-.09-1.39.26-1.07-.23-1.84-.15-2.34.26-.47.38-.97.32-1.44-.26-.7.58-1.42.91-2.19 1.02-.77.12-1.47.41-2.04.85-.4 1.05-.65 1.55-.75 1.55-.07 0-.17.12-.27.35-.5.56-.77 1.23-.82 1.96-.05.76-.45 1.23-1.22 1.46-.2 1.26-.55 2.34-1.02 3.24-.5.94-.97 1.9-1.47 2.92.1.47.17.85.22 1.2.05.35.07.73.07 1.2-.5 1.14-.65 1.81-.45 1.96.2.18.25.38.15.61-.67.58-1.02 1.05-1.02 1.46 0 .38-.25.47-.72.26 0 2.28-.55 3.89-1.61 4.88-1.07.97-2.14 2.19-3.21 3.68-.77 0-1.47.06-2.11.23-.62.18-1.32.38-2.11.61-.57-.47-1.22-.79-1.96-1.02-.72-.23-1.32-.64-1.81-1.2-.57-1.72-1.04-2.75-1.39-3.1-.32-.32-.6-.97-.79-1.87.5-1.49 1.07-2.72 1.76-3.68.67-.97 1.07-2.31 1.14-4.03.2-.47.47-.85.82-1.2.32-.35.6-.79.79-1.37.2-.44.32-.91.37-1.37.02-.44.15-.85.35-1.2.7-.91 1.07-1.58 1.17-2.05.1-.47.45-.79 1.02-1.02-.2-1.26.05-2.08.72-2.48.7-.41 1.02-1.05 1.02-1.99 0-1.14-.17-2.19-.57-3.16-.4-.97-.57-2.02-.57-3.16 0-.82.15-1.4.5-1.81.35-.38.72-.76 1.17-1.11.42-.35.84-.7 1.24-1.11.37-.41.67-.88.87-1.46h1.44c.8-1.14 1.42-2.4 1.91-3.77.47-1.37 1.02-2.69 1.59-3.95.2-.44.25-.99.15-1.61-.1-.64-.05-1.11.15-1.46.67-.91.97-1.58.87-1.96-.1-.41.2-.73.87-.96-.1-1.02-.02-1.7.22-2.05.25-.35.4-.91.5-1.7.3-.47.62-.85.94-1.14.35-.26.72-.53 1.09-.76v-2.22c.4-.23.7-.55.89-.94.17-.41.47-.67.87-.79.1-.44.12-.82.07-1.11-.05-.29.15-.41.65-.41.2-.47.25-.91.15-1.29-.1-.41-.05-.85.15-1.29.2-.58.47-1.05.87-1.46.4-.41.57-.88.57-1.46-.17-.12-.25-.29-.2-.5.02-.23.12-.53.27-.88.15-.32.25-.67.3-1.02.05-.35.02-.79-.07-1.38.4-.35.64-.7.79-1.11.15-.41.37-.76.67-1.11-.2-1.14-.2-2.1 0-2.92.17-.79.37-1.7.57-2.72.67-.35 1.17-.82 1.47-1.37-.1-.82-.05-1.58.15-2.31.17-.76.4-1.46.65-2.16.25-.67.42-1.31.5-1.96.1-.61 0-1.34-.27-2.13.27-.91.7-1.58 1.22-1.99.55-.38.72-1.23.52-2.48.67-.67 1.39-1.55 2.11-2.63.72-1.08.94-2.22.65-3.36.79-1.26 1.37-2.6 1.76-4 .37-1.43.47-2.95.27-4.56.5-1.14.99-2.46 1.54-3.92.52-1.49.75-2.87.65-4.12.6-.23.89-.64.94-1.29.05-.61.17-1.23.37-1.78.2-.23.42-.5.65-.79.25-.29.37-.64.37-1.11.57-.56.99-1.23 1.24-1.96.25-.76.55-1.4.94-1.99.3-.67.62-1.32 1.02-1.87.4-.58.72-1.2 1.02-1.9h2.04c.2-.56.5-.94.94-1.11.45-.18.92-.23 1.47-.23.52 0 1.09.03 1.66.06.57.06 1.07 0 1.47-.23.27.44.6.79.94 1.02.32.23.65.44.95.67.3.23.52.53.72.88.2.32.25.85.15 1.52.4.12.67.29.87.53.2.23.5.35.87.35-.2.55-.12 1.05.22 1.43.35.41.52.91.52 1.46 0 .23-.12.53-.37.88-.25.32-.37.79-.37 1.34 0 .94.15 1.72.45 2.4.3.7.62 1.37 1.02 2.08-.1.91-.25 1.49-.45 1.78-.2.29-.05.91.45 1.81-.1.79-.1 1.26 0 1.37.1.12.2.2.3.32.08.12.15.32.2.61.05.29.07.76.07 1.46.7 1.14.99 1.96.95 2.48-.05.5.27.82.94.94 0 1.14.22 2.1.67 2.92.42.79.99 1.52 1.66 2.22 0 .91.15 1.64.45 2.22.3.55.37 1.31.27 2.22.2.91.7 1.67 1.47 2.22-.2.82-.22 1.61-.07 2.4.15.82.37 1.58.67 2.31.27.76.6 1.52.94 2.31.32.82.6 1.55.79 2.25.57 2.84 1.22 5.32 1.89 7.42.67 2.14 1.79 4.33 3.35 6.61-.1.23-.1.64 0 1.2.1.58 0 .79-.3.7.4.56.92 1.49 1.59 2.81.7 1.31.94 2.37.75 3.19.67 1.35 1.04 2.51 1.09 3.51.05.97.18 1.9.35 2.81.8.94 1.32 2.02 1.61 3.27.3 1.26 1.02 2.11 2.19 2.57-.2 1.58.12 3.22.94 4.88.82 1.64 1.34 3.27 1.51 4.88.8.91 1.39 1.96 1.84 3.16.42 1.2.99 2.37 1.67 3.51-.1.58-.15 1.29-.15 2.13 0 .88.4 1.23 1.17 1.11-.1.7-.05 1.26.15 1.72.2.47.4.85.64 1.2.25.35.5.67.75 1.02.22.35.4.76.5 1.2.77.91 1.37 1.55 1.74 1.9v3.07c.5.58.99 1.2 1.54 1.9.52.67 1.19 1.14 1.96 1.34-.5 1.84-.4 3.33.3 4.47.67 1.14 1.02 2.16 1.02 3.07 0 .47-.05.85-.15 1.11-.1.29-.15.61-.15.97 0 .44.05.82.15 1.11.1.26.15.58.15.94 0 1.26-.3 2.28-.87 3.07-.6.82-1.29 1.43-2.11 1.9-.85.44-1.74.76-2.71.94-.97.18-1.84.26-2.61.26zm-28.82-68.17c0-1.61-.32-3.07-.97-4.38a8.3 8.3 0 0 1-.79-4.18c-.47-.12-.72-.44-.72-.94 0-.53-.2-.85-.57-.96.37-.79.3-1.67-.22-2.63-.55-.99-.72-2.11-.52-3.36-.27-.23-.52-.55-.72-1.02-.2-.47-.4-.85-.57-1.2-.3-2.28-1.02-4.3-2.11-6.08a18.137 18.137 0 0 1-2.41-5.73c-.4-.12-.7-.29-.94-.53-.25-.23-.52-.44-.8-.67-.2.44-.45.7-.75.76-.3.06-.52.2-.72.44-.5.55-.7 1.31-.65 2.22.05.91-.32 1.78-1.09 2.57v1.2c0 .47.12.79.42 1.02-.77.23-1.17.64-1.17 1.2 0 .58-.1 1.14-.27 1.72-.6 1.37-.85 2.31-.75 2.81.1.53.1 1.05 0 1.64l-1.29 2.75c-.4.23-.7.53-.89.94-.17.41-.37.82-.57 1.29-.5.91-.87 1.7-1.17 2.31-.3.64-.35 1.58-.15 2.84-.47 1.14-.82 1.81-1.02 2.05-.2.23-.32.53-.42.85-.1.47-.12.93-.07 1.37.05.47.07.85.07 1.2-.79 1.14-1.32 2.4-1.61 3.77-.3 1.37-.42 2.75-.42 4.12-.3.56-.52.99-.67 1.29-.15.26-.25.5-.27.67-.05.18-.1.38-.15.61-.05.21-.17.61-.37 1.2-.87 1.02-1.72 2.4-2.56 4.09-.82 1.72-1.22 3.04-1.22 3.95-.3.12-.55.29-.75.53-.17.21-.37.44-.57.67.1 1.02.03 1.9-.22 2.66-.25.73-.4 1.58-.5 2.48.47.35 1.07.56 1.74.67.67.12 1.27-.12 1.74-.67.1.23.27.38.52.41.25.06.5.09.79.09.3 0 .55.03.8.09s.32.26.22.61c1.94-.12 3.92-.23 5.96-.35 2.04-.12 3.97.23 5.84 1.02 1.84-.32 3.75-.55 5.74-.67 1.99-.12 3.9.12 5.76.67 1.54-.67 3.11-.97 4.65-.85 1.57.12 3.11 0 4.67-.35-.2-.55 0-.91.57-1.02.57-.12.87-.73.87-1.87 0-.94-.27-1.84-.8-2.75-.55-.91-.94-1.84-1.24-2.75-.2-.55-.32-1.14-.37-1.7-.02-.58-.15-1.14-.35-1.72-.2-.35-.45-.61-.72-.85-.3-.23-.55-.58-.75-1.02-.67-2.19-1.34-4.33-1.96-6.43-.62-2.1-1.47-4.15-2.54-6.08zM307.28 553.98c-.67.94-.94 1.87-.79 2.84.15.96.22 1.9.22 2.83 0 .91-.12 1.46-.37 1.7-.25.23-.5.64-.79 1.2l-1.17 1.55c-.77 2.4-1.51 4.21-2.19 5.41-.67 1.2-1.07 2.57-1.17 4.18-.57 0-.85.23-.79.7.05.44-.03.85-.22 1.2-.2.21-.5.38-.94.5-.42.12-.5.47-.22 1.02-.77.23-1.79.99-3.06 2.25-1.24 1.23-2.19 2.22-2.76 2.89-1.64-.12-2.91.53-3.78 1.9-.89 1.35-1.81 2.34-2.78 2.89-.27.23-.6.29-.94.18-.32-.12-.65-.06-.94.18-1.17 1.02-1.99 1.64-2.46 1.87-.5.23-.89.64-1.17 1.2.1.35.25.61.5.79.25.18.52.32.8.5.3.18.55.38.75.61.17.23.22.56.15 1.02a32.05 32.05 0 0 1 8.72 5.15c-.2 1.37.05 2.34.72 2.89.69.58 1.22.99 1.61 1.2-.1.94.15 1.55.72 1.9.6.35 1.07.79 1.47 1.37.37 1.02.72 1.52 1.02 1.52.27 0 .52.12.72.35.1.7.42 1.46.95 2.31.55.88.84 1.35.94 1.46.2.58.25 1.11.15 1.64-.1.5-.15 1.05-.15 1.61 0 1.14.3 2.22.87 3.19.6.97.64 2.02.15 3.16.2.47.45.76.72.85.3.12.55.47.75 1.05.2.79.27 1.55.22 2.31-.05.73.02 1.46.2 2.13.2.79.42 1.37.67 1.72.25.32.35 1.02.35 2.05 0 1.49-.3 2.81-.95 3.95-.62 1.14-1.27 2.28-1.96 3.42-.97.23-1.86.58-2.68 1.11-.82.53-1.39 1.4-1.69 2.66-1.44.23-2.91.23-4.35 0-.3-.82-.65-1.4-1.02-1.81-.4-.38-.77-.82-1.09-1.29-.35-.44-.65-.94-.87-1.46-.25-.5-.37-1.26-.37-2.31 0-.67-.17-1.34-.52-1.96-.32-.61-.25-1.29.22-1.96-.2-.23-.32-.53-.35-.88-.05-.32-.32-.44-.82-.32.3-.58.42-1.29.37-2.16-.05-.85-.42-1.43-1.09-1.78 0-.58.12-.97.37-1.2.22-.23.35-.47.35-.7 0-.67-.22-1.26-.72-1.7-.5-.47-.5-1.14 0-2.08-.57-.55-.99-1.29-1.24-2.22-.25-.91-.65-1.64-1.24-2.22.3-1.26.32-2.4.08-3.42-.22-1.02-1.04-1.61-2.38-1.72-.7-1.26-1.27-2.02-1.76-2.31-.47-.29-.97-.53-1.44-.76.1-.47.07-.79-.08-.94-.15-.18-.35-.35-.6-.53-.22-.18-.42-.38-.57-.58-.15-.23-.22-.53-.22-.88-1.17.12-1.86-.12-2.11-.67-.25-.58-.75-1.2-1.51-1.9-.5.12-.89.09-1.24-.09a3.91 3.91 0 0 1-.87-.5c-.25-.18-.52-.32-.82-.44-.27-.12-.67-.18-1.14-.18-.1-.32-.27-.58-.52-.76a3.76 3.76 0 0 1-.65-.61c-.7 0-1.49-.12-2.41-.41-.92-.29-1.66-.15-2.26.41-.27-.09-.52-.29-.72-.58-.2-.29-.4-.56-.57-.76-.2-.23-.42-.41-.67-.53-.25-.12-.55 0-.95.35-.47-.94-.94-1.55-1.39-1.9-.42-.32-.99.06-1.66 1.2-.3-.44-.7-.7-1.24-.76-.52-.06-1.09-.03-1.66.09-.6.12-1.17.21-1.74.26-.6.06-1.07-.03-1.47-.26-.5.23-.92.41-1.32.5-.37.12-.82.29-1.32.53-.87-.12-2.01-.2-3.4-.26-1.42-.06-2.86-.03-4.3.09-1.47.12-2.83.32-4.15.61-1.32.26-2.31.7-2.98 1.29-.1 1.93-.05 3.62.15 5.03.17 1.43.62 3.07 1.29 4.88-.27 2.31-.32 3.6-.15 3.95.2.35.6 1.02 1.17 2.08-.17 1.81-.25 3.45-.2 4.88.05 1.4.35 2.98.94 4.71 0 .55.15.91.42 1.02.3.12.55.29.75.5.17.23.3.53.35.88.05.32.17.67.37 1.02-1.37.91-2.24 2.07-2.63 3.51-.37 1.43-1.02 2.78-1.89 4.03-1.17-.12-2.16.15-2.98.85-.82.67-1.71 1.02-2.68 1.02-.5 0-.92-.18-1.32-.5-.4-.35-.87-.58-1.47-.7-.27-.79-.6-1.55-.95-2.22-.32-.7-.89-1.14-1.66-1.37-.2-1.61-.57-2.54-1.09-2.84-.55-.26-.99-.7-1.39-1.29.1-.44.05-.79-.15-1.02-.17-.23-.27-.5-.27-.85 0-.58.07-.94.2-1.11.15-.18.35-.32.6-.44s.45-.23.57-.32c.15-.12.22-.47.22-1.05 0-.44-.08-.85-.22-1.2-.12-.32-.2-.67-.2-1.02 0-.44.1-.76.35-.94.25-.18-.02-.5-.79-.94 0-.47.07-.88.22-1.2.15-.35.22-.76.22-1.2 0-.94-.07-1.78-.22-2.57-.15-.82-.32-1.61-.52-2.4-.2-.7-.5-1.08-.94-1.2-.42-.12-.75-.47-.95-1.02.67-1.26.95-2.95.8-5.06-.15-2.13-.4-3.8-.8-5.06-.1-.47-.35-.67-.72-.61-.4.06-.64-.09-.72-.41.17-.58.37-1.23.57-1.99.2-.73.62-1.23 1.32-1.43-.2-.58-.27-1.17-.22-1.72.05-.58.22-1.08.5-1.55-.17-.44-.35-.91-.5-1.37-.15-.44-.47-.73-.94-.85.47-.55.57-1.08.3-1.55-.3-.44-.5-.97-.6-1.52.87-1.61 1.22-3.16 1.02-4.65-.2-1.46-.3-3.01-.3-4.62 0-.44.12-.85.37-1.2s.37-.73.37-1.2c0-.55-.07-1.08-.22-1.55-.15-.44-.22-.97-.22-1.52 0-.47.1-.88.3-1.2.2-.35.35-.7.42-1.05-.17-.55-.22-.96-.12-1.17.07-.23.12-.47.12-.7 0-.67-.22-1.67-.72-2.92-.47-1.23-.47-2.16 0-2.72-.67-1.72-.97-3.13-.87-4.21.1-1.08.15-2.19.15-3.33 0-1.14-.12-2.16-.37-3.1-.25-.91-.7-1.64-1.39-2.22 0-1.7-.1-3.39-.35-5.06-.25-1.64-.37-3.33-.37-5.03-.3-.94-.32-1.46-.08-1.64.25-.18.37-.38.37-.61 0-.67-.2-1.35-.57-1.96-.4-.64-.6-1.35-.6-2.13 0-.35.07-.7.22-1.02.15-.35.22-.76.22-1.2 0-.35-.15-.76-.45-1.2-.3-.47-.15-.82.45-1.05-.3-.56-.5-1.11-.6-1.61-.1-.53-.25-1.05-.42-1.64.67-1.81 1.49-3.39 2.46-4.71.97-1.32 1.47-3.1 1.47-5.41.67-.12 1.34-.23 1.96-.41.62-.18 1.34-.26 2.11-.26 1.54.35 2.78.44 3.7.26.92-.18 1.79.09 2.56.76 1.54-.67 3.13-1.11 4.72-1.29 1.61-.18 3.23-.29 4.89-.35 1.64-.06 3.25-.09 4.87-.15 1.59-.06 3.23-.32 4.87-.79.5.35.92.64 1.32.88.4.21.82.44 1.32.67.47 0 .89-.15 1.22-.44.35-.26.77-.53 1.24-.76 1.07.23 2.11.29 3.13.18 1.02-.12 2.06-.18 3.13-.18.77 0 1.57.15 2.34.44.77.26 1.54.41 2.34.41.97.7 1.49.88 1.59.53.1-.35.45-.53 1.02-.53.5 0 1.17.12 2.04.35.87.23 1.41 0 1.61-.67.97.32 1.94.53 2.91.59.97.06 1.99.21 3.06.44.77.2 1.27.53 1.44.94.2.41.55.7 1.02.94 1.07-.12 1.84.09 2.26.61.45.5 1.04.82 1.84.94-.1.55.02.85.42.85.4 0 .5.29.3.85 1.54.58 2.76 1.32 3.63 2.25.7.12 1.44.23 2.26.41.82.18 1.54.44 2.11.79.4.2.67.47.87.76.2.29.4.55.6.76.27.12.62.21 1.02.26.37.06.67.2.87.44.2.12.32.35.35.67.05.35.17.64.37.88.4.44.77.76 1.17.93.4.18.5.7.3 1.61h1.89c-.1.58-.02 1.02.22 1.29.22.29.25.73.07 1.29.17.58.47 1.02.87 1.37.37.35.72.76 1.02 1.2.2.58.3 1.14.3 1.72 0 .56.37.85 1.14.85v2.22c.5.91 1.22 1.67 2.19 2.22-.1 1.26.02 2.19.37 2.75.35.58.85 1.26 1.52 2.07-.07 1.14-.12 2.22-.12 3.25 0 1.02.12 2.05.42 3.07zm-14.83-3.07c-.89-1.61-1.37-3.22-1.47-4.8-.57-.23-1.02-.58-1.32-1.02-.3-.47-.62-.99-1.02-1.55-.1-.58-.27-1.11-.5-1.64a5.95 5.95 0 0 1-.52-1.61c-1.84-.7-3.25-1.9-4.22-3.6-.87 0-1.47-.23-1.81-.7-.35-.47-.85-.97-1.54-1.55-.47 0-.92-.12-1.29-.32-.4-.23-.82-.35-1.32-.35-1.57-.79-2.78-1.61-3.7-2.4-.94-.79-1.94-1.32-3.01-1.55-.97-.23-1.91-.32-2.83-.26-.92.06-1.86-.03-2.83-.23-.5-.12-.94-.26-1.39-.44-.42-.18-.9-.26-1.37-.26-1.17.23-1.82.2-1.91-.09-.07-.29-.22-.41-.42-.41-.77.55-1.59.79-2.41.67-.82-.12-1.61-.18-2.38-.18-.5 0-1.02.12-1.54.35-.52.23-1.04.35-1.54.35-.47 0-.92-.06-1.29-.18-.4-.12-.82-.17-1.32-.17-.5 0-.89.06-1.24.17-.32.12-.69.18-1.09.18-.27 0-.57-.06-.87-.18-.3-.12-.62-.17-1.02-.17-.77 0-1.52.15-2.26.41-.72.29-1.47.44-2.26.44-.67-.35-1.14-.35-1.44 0-.77-.12-1.47-.15-2.04-.09-.6.06-1.27.21-2.04.44-.7-.23-1.32-.41-1.89-.53-.6-.12-1.22-.23-1.91-.32-.67.44-1.07.88-1.14 1.26-.1.41-.7.5-1.76.26.2.94.37 1.9.52 2.92.15 1.02.45 1.99.94 2.92-.3.91-.62 1.52-.94 1.87-.35.35-.52.79-.52 1.37 0 .23.22.64.67 1.29.42.61.7 1.17.79 1.61-.5 1.61-.64 3.22-.45 4.82.2 1.58.82 3.01 1.89 4.27-.17.35-.25.73-.2 1.2.05.47.15.88.27 1.29.15.41.27.85.37 1.37.1.5.1 1.05 0 1.61.77 1.17 1.37 2.13 1.74 2.92.4.79.3 1.99-.27 3.6.1.47.32.76.72.85.4.12.52.47.45 1.05-.7.21-1.04.97-1.04 2.22 0 .56.05 1.17.15 1.78.1.64.15 1.23.15 1.81 0 1.14-.15 2.37-.42 3.68-.3 1.32-.3 2.48 0 3.51-.2.47-.45.79-.75 1.02-.27.23-.42.64-.42 1.2.27.23.47.56.57.94.1.41.3.73.6.97.77-.23 1.47-.29 2.11-.18.62.12 1.27.18 1.96.18-.4.21-.47.5-.22.85.25.35.45.61.65.85 1.76.23 3.5.12 5.24-.35 1.74-.44 3.5-.67 5.24-.67.87 0 1.74.12 2.63.35.87.23 1.74.32 2.61.32.5 0 .92-.09 1.32-.32.37-.23.82-.35 1.32-.35 1.34.23 2.34.23 2.98 0 .62-.23 1.22-.12 1.81.35 1.07-.58 2.09-1.11 3.06-1.64.97-.53 2.09-.58 3.35-.26a7.98 7.98 0 0 0 2.61-1.46c.77-.61 1.76-.7 2.91-.23.3-.35.52-.7.67-1.02.15-.35.45-.64.94-.88.3.23.5.18.65-.17.15-.32.42-.38.79-.18.5-.56.99-1.08 1.54-1.52.52-.47.99-1.02 1.39-1.72.67-.12 1.37-.44 2.11-1.02.72-.58 1.39-1.14 2.04-1.72.62-.55 1.27-1.08 1.96-1.52.67-.47 1.39-.76 2.19-.88.27-1.02.8-1.84 1.52-2.48.72-.61 1.34-1.37 1.81-2.31-.1-.55-.03-1.02.22-1.37.25-.32.32-.79.22-1.35.57-.47 1.07-.76 1.47-.88-.1-.79 0-1.32.35-1.55.35-.2.47-.67.37-1.34.77-1.14 1.12-2.07 1.02-2.75-.1-.7-.15-1.37-.15-2.05 0-1.49-.55-2.4-1.59-2.75zM328.23 600.58c-.67-.35-.92-1.08-.72-2.22.2-1.14.35-1.99.45-2.57-.4-.58-.45-1.08-.15-1.55.27-.44.42-.96.42-1.55 0-.44-.1-.88-.27-1.26-.2-.41-.3-.91-.3-1.46 0-.47.05-.88.15-1.2.1-.35.15-.76.15-1.2 0-1.49-.07-2.95-.22-4.39-.15-1.43-.27-2.92-.37-4.53-.1-.55-.1-1.08 0-1.55.1-.44.15-.96.15-1.52 0-1.17-.4-2.02-1.17-2.57.1-2.28.25-4.56.45-6.78.17-2.22.27-4.47.27-6.75 0-.58-.05-1.08-.15-1.55-.07-.47-.12-.97-.12-1.55-.2-1.46-.27-2.6-.22-3.33.05-.73-.12-1.4-.52-1.96.6-1.37.8-2.4.6-3.1-.2-.67-.3-1.64-.3-2.89 0-.7.05-1.23.15-1.64.1-.41.17-.82.22-1.29.05-.47.02-.93-.07-1.46-.1-.5-.4-1.11-.87-1.78.1-.58.17-1.05.27-1.46.1-.41.1-.88 0-1.46a8.573 8.573 0 0 1-.79-3.33c-.05-1.2-.32-2.37-.8-3.51.47-.35.65-.67.5-.96-.12-.26-.2-.7-.2-1.29 0-.91.15-1.7.5-2.4.35-.67.52-1.4.52-2.22 0-.67-.05-1.37-.15-2.05-.1-.67-.15-1.37-.15-2.05 1.07-.23 1.81-.7 2.26-1.37.42-.7 1.14-1.32 2.11-1.9.67 0 1.29.06 1.89.18.57.12 1.22.18 1.89.18.3 0 .55-.06.79-.18.25-.12.52-.18.8-.18.7 0 1.34.12 1.99.35.62.23 1.32.35 2.11.35.17 0 .42-.06.72-.18s.52-.18.72-.18c.5 0 .9.06 1.24.18.35.12.75.18 1.24.18.67 0 1.34-.21 2.04-.61.67-.38 1.34-.7 2.04-.94.47.58.85.76 1.09.61.25-.18.5-.26.8-.26 1.47.32 2.53.38 3.2.18.67-.23 1.27.12 1.74 1.02.97-.23 1.89-.29 2.78-.18.87.12 1.74.32 2.61.58.87.29 1.74.58 2.61.88.89.26 1.76.47 2.63.58 1.74 2.86 4.08 4.47 6.98 4.79.97.82 1.89 1.37 2.78 1.72.87.35 1.44.73 1.74 1.2.67.55 1.27.79 1.74.67.5-.12 1.27.23 2.34 1.02.97.58 1.57.79 1.81.61.25-.18.47-.32.67-.44-.1 1.05-.07 1.49.05 1.37.15-.12.37.12.67.7.97 0 1.64.29 2.04.94.37.61 1.12.94 2.19.94 0 1.26.17 2.13.5 2.66.35.53.67 1.29.95 2.31.6.7 1.14 1.37 1.69 2.05.52.7.89 1.49 1.09 2.4.47.23.79.47.94.7.15.23.45.29.94.17.1.79.3 1.43.57 1.87.3.47.7.91 1.17 1.37.97 1.26 1.74 2.57 2.34 3.95.57 1.37 1.42 2.63 2.46 3.77.2.56.27 1.17.22 1.78-.05.64.02 1.17.22 1.64 0 .35.12.59.37.76.22.18.47.32.72.44s.5.29.72.5c.25.23.37.58.37 1.05 0 .32-.08.64-.22.94-.15.29-.22.53-.22.76 0 .58.15 1.14.45 1.72.3.55.52 1.08.72 1.55.5 1.02.72 2.13.67 3.33-.05 1.2.2 2.19.79 2.98 0 .47-.07.85-.22 1.11-.15.29-.17.73-.07 1.29-.1.35-.05.64.15.88.2.23.35.5.45.85-.3.91-.42 1.78-.37 2.57.05.79.07 1.64.07 2.57.1.67.08 1.14-.07 1.37-.15.21-.22.5-.22.85.2.23.25.7.15 1.46-.1.73-.25 1.49-.45 2.31-.18.79-.4 1.55-.65 2.22-.25.67-.47 1.2-.65 1.55.27 1.14.2 2.25-.3 3.33s-.62 1.9-.45 2.48c.2.35.37.56.52.67.15.12.22.47.22 1.05-1.07.91-1.71 1.75-1.89 2.54-.2.82-.3 2.02-.3 3.63 0 .56-.17.91-.52 1.02-.32.12-.6.26-.79.5-.2.47-.37.88-.5 1.2-.15.35-.47.7-.97 1.02.2.58.2.97 0 1.11-.17.18-.47.38-.87.61-.2.23-.32.61-.42 1.11-.1.53-.82 1.05-2.19 1.64-.1.67-.27 1.11-.52 1.29-.22.18-.25.76-.07 1.78-.57.12-1.04.26-1.37.44-.35.18-.77.47-1.24.94-.2.47-.42.91-.65 1.37-.25.47-.42.97-.52 1.55-.47.44-.92.76-1.32.94-.37.18-.67.58-.87 1.29-.57.47-1.07.73-1.44.85-.4.12-.65.7-.75 1.72-.47-.23-1.17-.23-2.04 0-.87.23-1.49.5-1.89.85-.3.35-.52.55-.72.61-.2.06-.5.18-.87.41-.97.58-1.96 1.2-2.93 1.9-.97.67-1.89 1.4-2.76 2.22-1.27 0-2.48.15-3.7.41-1.22.29-2.21 1.14-2.98 2.48-3.3.35-6.16 1.61-8.6 3.77-.6-.21-1.19-.21-1.81 0-.65.23-1.19.23-1.69 0-.47.35-.99.61-1.52.79-.55.18-1.04.53-1.54 1.11-1.34-.12-2.41.03-3.21.41-.77.41-1.79.73-3.06.97-.57.23-1.19.32-1.81.32-.62 0-1.24.06-1.81.18-1.27.23-2.24.82-2.91 1.72h-1.61c-.57 0-.97.29-1.17.85-.87-.56-1.72-.85-2.53-.85-.85 0-1.69-.12-2.56-.35-.37-.67-.67-1.2-.87-1.55-.2-.32-.67-.44-1.47-.32-.17-1.84-.92-2.81-2.16-2.92v-2.4c0-.79-.25-1.49-.75-2.05.2-.59.5-1.35.87-2.31.4-.99.6-1.75.6-2.31 0-.23-.1-.53-.3-.88-.2-.32-.35-.61-.42-.85.47-1.37.6-2.51.35-3.42-.25-.91-.35-2.08-.35-3.42 0-.35.02-.67.12-.97.1-.26.15-.58.15-.94 0-.35-.1-.64-.27-.94-.2-.29-.3-.61-.3-.94 0-.94.15-1.84.42-2.75.3-.91.45-1.84.45-2.75 0-.55-.1-1.11-.3-1.64-.2-.5-.27-1.05-.27-1.61.17-1.49.22-2.37.12-2.66-.1-.29-.12-.64-.12-1.11l.27-1.37zm10.93-27.74c.1.56.2 1.37.35 2.4.15 1.02.42 1.75.82 2.22-.1.35-.25.64-.45.94-.2.29-.3.61-.3.94 0 .35.05.73.15 1.14.1.38.2.7.3.94.4 1.81.52 3.63.42 5.38-.07 1.78-.12 3.57-.12 5.41.37.47.57.97.57 1.55v1.7c0 .91.2 1.93.57 3.01.4 1.08.25 2.02-.42 2.81.2.59.27 1.23.22 1.9-.05.67-.07 1.37-.07 2.05 0 .94.12 1.72.35 2.4.25.7.37 1.49.37 2.4.3 1.61.5 2.75.57 3.45-.17.56-.45.88-.79.94-.32.06-.5.29-.5.76v4.3c0 .91.02 1.72.07 2.48.05.73.07 1.11.07 1.11.27.55.57 1.02.87 1.34.27.35.52.82.72 1.37.77-.21 1.54-.47 2.26-.76.72-.29 1.52-.38 2.41-.26.47-.56.99-1.02 1.51-1.37.55-.32 1.04-.67 1.54-1.02.27.58.62.85 1.02.85.37 0 .79-.09 1.22-.32.45-.23.89-.5 1.32-.79.45-.26.89-.41 1.39-.41.3-.47.77-.91 1.44-1.37.5.23 1.29.15 2.41-.26 1.12-.41 1.91-.64 2.41-.76.2-.12.45-.32.8-.61.35-.29.6-.47.79-.58.77-.35 1.52-.61 2.19-.79.67-.18 1.37-.47 2.04-.94.2-.47.42-.82.67-1.11.22-.29.5-.58.8-.94.97.35 1.84.38 2.61.18.77-.23 1.52-.61 2.19-1.11.67-.53 1.37-1.08 2.04-1.64.67-.58 1.47-1.02 2.34-1.37-.2-.91-.05-1.67.42-2.22.5 0 .87-.12 1.09-.35.25-.23.5-.47.75-.67.22-.23.5-.47.8-.7.3-.23.67-.29 1.17-.18.77-1.46 1.64-2.72 2.61-3.77.97-1.02 1.76-2.34 2.34-3.92.57-.7.97-1.26 1.17-1.72.2-.47.25-1.02.15-1.7.67.21.99.26.94.15-.05-.12.17-.32.65-.67-.1-.91 0-1.75.3-2.48s.2-1.58-.3-2.48c1.07-1.26 1.54-2.81 1.39-4.62-.15-1.84-.07-3.54.22-5.15-.4-.35-.6-.73-.6-1.2s.1-.94.3-1.46c.2-.5.42-1.02.65-1.52.25-.53.37-1.02.37-1.46 0-1.26-.2-2.48-.57-3.68-.4-1.2-.65-2.43-.75-3.68a3.9 3.9 0 0 1-1.09-2.07c-.15-.79-.2-1.64-.2-2.54-.8-.94-1.32-1.93-1.61-3.01-.3-1.08-.47-2.25-.57-3.51-.6-.58-1.02-1.23-1.32-1.96-.3-.76-.55-1.52-.72-2.34-.6-.44-1.14-.82-1.69-1.11-.52-.26-1.04-.7-1.52-1.29-.2-.91-.4-1.58-.6-2.05-.87-.47-1.49-1.05-1.89-1.78-.4-.76-1.12-1.23-2.19-1.46-.2-.94-.52-1.49-1.02-1.72-.47-.23-.92-.61-1.32-1.2h-2.46c0-.35-.07-.56-.22-.67a4.06 4.06 0 0 0-.57-.35c-.25-.12-.45-.26-.6-.44-.15-.18-.22-.47-.22-.94-.77-.12-1.64-.67-2.61-1.7-.2-.12-.37-.06-.52.15-.12.23-.45.29-.94.18-.47-.91-1.02-1.58-1.59-2.05-.6-.47-1.37-.73-2.34-.85-.1-.7-.32-1.11-.65-1.2-.35-.12-.62-.47-.8-1.05-.69-.09-1.24-.26-1.69-.5-.42-.23-.85-.5-1.24-.79-.37-.26-.85-.47-1.37-.58-.55-.12-1.24-.06-2.11.18-.5-.91-.92-1.43-1.32-1.55-.4-.12-.82-.18-1.32-.18-.3 0-.55.03-.79.09-.25.06-.52.09-.8.09-1.07-.67-1.91-.79-2.56-.35-.62.47-1.19.7-1.67.7-.77-.35-1.42-.38-1.89-.09-.5.29-1.07.58-1.76.94-.97-.23-1.94-.35-2.91-.35-.97 0-1.94-.06-2.91-.15-.4.44-.57 1.02-.57 1.7 0 .7.05 1.37.2 2.05.15.7.35 1.34.6 1.99.25.61.45 1.17.65 1.64-.2.32-.37.67-.5 1.02-.15.32-.32.73-.52 1.2.4.67.57 1.26.52 1.7-.05.47.2 1.02.79 1.72-.6.67-.84 1.11-.79 1.29.05.18.02.41-.07.76.67 2.28.89 4.73.65 7.37-.25 2.63.02 4.97.79 7.02-.37 1.05-.55 1.99-.5 2.83.05.85.12 1.81.22 2.84.07 1.02.17 2.02.27 2.98.1.97.2 1.64.3 1.99 0 .56.08 1.02.22 1.37.15.32.22.73.22 1.2l-1.17.85zM487.06 612.74c.47-.79.67-1.31.57-1.55-.1-.23-.15-.38-.15-.5h1.76c.17-.47.27-.79.27-.94v-.35c0-.06.07-.15.22-.26.15-.12.47-.29.94-.53.2-.32.45-.7.75-1.11.27-.38.52-.76.72-1.11.97-.44 1.94-.61 2.91-.5.97.12 1.94.26 2.91.5.7 2.16 1.04 3.74 1.09 4.71.05.99-.02 1.78-.22 2.4-.17.64-.45 1.29-.79 1.99-.35.67-.5 1.75-.5 3.24 0 .91-.05 1.55-.15 1.9-.6.56-1.07.99-1.47 1.29-.37.26-.62.94-.72 1.96-.6 0-1.02.12-1.32.35-.3.21-.55.5-.79.85-.25.35-.52.64-.8.94-.3.29-.75.44-1.32.44-.5.23-.84.58-1.09 1.11-.25.5-.47.99-.64 1.46-.5 0-.92.15-1.32.41-.4.29-.82.5-1.32.61-.67.79-1.12 1.26-1.32 1.37-.17.12-.37.18-.57.18-.57.2-.99.64-1.24 1.29-.25.61-.65 1.05-1.24 1.26-1.14.47-2.43.7-3.85.7-1.41 0-2.48.61-3.28 1.87-1.54.23-3.03.61-4.42 1.11-1.42.53-2.86 1.08-4.3 1.64-.7-.67-1.59-.97-2.71-.85-1.12.12-2.06.18-2.83.18-.67 0-1.27-.29-1.74-.88-.4.12-.92.26-1.61.44-.67.18-1.34.26-2.04.26-.67 0-1.29-.15-1.89-.44-.57-.29-.97-.76-1.17-1.46-.2.12-.42.23-.72.35-.3.12-.55.23-.72.35-2.14-.58-4.2-1.2-6.19-1.9-1.99-.67-3.97-1.64-5.91-2.89h-2.61c-.3-.7-.75-1.14-1.39-1.37-.62-.23-1.04-.76-1.24-1.55-.37-.23-.75-.41-1.09-.5-.32-.12-.75-.23-1.22-.35-.89-.91-1.44-1.64-1.69-2.13-.25-.53-1.04-.73-2.38-.61.17-1.02.17-1.64 0-1.78-.2-.18-.4-.38-.6-.61-.57-.55-.82-1.08-.72-1.55.1-.44-.25-.79-1.02-1.02 0-.35-.05-.61-.15-.85-.1-.23-.15-.53-.15-.85-.2-.23-.45-.47-.8-.7-.35-.23-.62-.47-.79-.67-.2-1.26-.45-2.08-.75-2.4-.27-1.37-.5-2.22-.65-2.48-.15-.29-.22-.67-.22-1.11-.2-.35-.32-.67-.42-.97-.1-.26-.35-.53-.75-.76-.17-1.37-.37-2.86-.57-4.44-.2-1.61-.64-2.98-1.32-4.12.2-1.61.08-3.22-.37-4.88-.42-1.67-.65-3.27-.65-4.88 0-.47.05-.85.15-1.2.1-.35.15-.73.15-1.2 0-1.02-.15-2.05-.45-3.07-.27-1.05-.42-2.02-.42-2.92 0-1.02.2-1.99.57-2.92.4-.91.2-1.87-.57-2.89.37-1.26.47-2.02.27-2.22-.17-.23-.27-.53-.27-.88 0-.55.1-1.05.27-1.46.2-.38.3-.88.3-1.43-.2-2.28-.1-4 .3-5.15.37-1.14.47-2.46.3-3.95.07-.12.22-.38.42-.76.2-.41.42-.88.65-1.37.25-.53.45-1.02.6-1.55.15-.5.27-.88.37-1.11 0-.23-.07-.5-.22-.76-.15-.29-.22-.61-.22-.96 0-.21.1-.44.3-.67.2-.23.32-.53.42-.85.1-.35.07-.82-.08-1.38-.12-.58.08-.91.67-1.02-.1-1.61.17-3.1.79-4.47.62-1.37.75-2.78.37-4.27.57-.47 1.02-.91 1.29-1.37.3-.47.4-1.14.3-2.05.77-.47 1.37-1.11 1.74-1.99.4-.85.7-1.78.89-2.81 1.07-.59 1.71-1.43 1.96-2.57.22-1.14.89-2.02 1.96-2.57.47-1.02.85-1.67 1.09-1.9.22-.21.45-.56.65-1.02.5-.79 1.09-1.35 1.81-1.61.75-.29 1.24-.73 1.54-1.29 1.44-1.37 2.34-2.46 2.61-3.27.3-.79.92-1.43 1.89-1.87.8-.35 1.32-.64 1.61-.85.3-.23.67-.76 1.17-1.55h2.04c.67-.35 1.39-.88 2.19-1.55.57.12 1.12.12 1.59 0 .5-.12.97-.47 1.47-1.02 1.34 0 2.78-.29 4.3-.85 1.49-.59 2.93-.47 4.27.32.6-.32 1.29-.5 2.11-.5.85 0 1.69.06 2.56.18.87.12 1.74.18 2.61.23.9.06 1.72-.03 2.48-.23.57.55 1.29.91 2.11 1.02.82.12 1.61 0 2.41-.35.27.79.72 1.17 1.29 1.11.6-.06 1.07.2 1.47.76.5 0 .87.06 1.17.18.3.12.62.23 1.02.35.2.35.42.7.65 1.11.25.41.47.85.67 1.29 1.07.12 2.04.58 2.91 1.37.87.79 1.39 1.93 1.59 3.42.3.23.62.5.94.79.35.26.57.64.67 1.11.67 0 1.17.15 1.44.5.3.35.6.82.87 1.37.89.23 1.64.61 2.26 1.11.65.53 1.29 1.11 1.96 1.81 0 .67.07 1.4.22 2.14.15.73-.17 1.29-.94 1.64l.15 1.7c-.2.35-.37.67-.52.94-.12.29-.3.61-.5.97-.5.91-.87 1.81-1.17 2.72-.3.94-1.02 1.37-2.19 1.37-.47 0-.94-.09-1.37-.26-.45-.15-.92-.23-1.39-.23-.67-.7-1.09-1.31-1.24-1.9-.15-.56-.75-.79-1.81-.67 0-1.26-.2-2.08-.6-2.49-.37-.41-.67-1.11-.87-2.13-.67-.23-1.19-.64-1.52-1.2-.35-.58-.77-1.14-1.24-1.72-.87-.23-1.57-.58-2.04-1.02-.5-.47-1.27-.7-2.34-.7-1.64-1.02-3.11-1.58-4.37-1.7a51.6 51.6 0 0 1-3.93-.53c-.57.12-.99.35-1.24.7-.22.32-.7.2-1.37-.35-.2 0-.47.18-.82.53-.32.32-.7.09-1.09-.7-1.04.58-2.04.53-2.91-.18-.2.23-.35.5-.5.79-.15.26-.52.35-1.09.23-1.37-.12-2.73-.06-4.08.18-1.37.23-2.43 1.14-3.21 2.75-.77.23-1.47.7-2.04 1.46-.6.73-1.27 1.29-2.04 1.61-.2.12-.37.32-.52.61-.15.29-.25.55-.35.76h-1.47c-.47.47-.79 1.05-.94 1.81-.15.73-.55 1.34-1.24 1.78.1.94-.12 1.67-.65 2.25-.55.56-1.19.97-1.96 1.2-.2.56-.42 1.17-.67 1.78-.22.64-.6 1.11-1.09 1.46.4.56.5.99.3 1.29-.2.29-.52.53-1.02.76 0 1.26-.05 2.05-.15 2.31-.1.29-.47.96-1.17 1.99.2.32.25.7.15 1.11-.1.38-.25.76-.42 1.11.17.56.17.88 0 .94-.2.06.05.32.72.76-.77.94-1.22 2.05-1.32 3.36-.1 1.32-.25 2.6-.42 3.86-.1.79-.22 1.4-.37 1.87-.15.47-.3.85-.45 1.2-.12.35-.22.76-.27 1.29-.05.53-.02 1.29.07 2.31-.3.23-.47.5-.52.76-.05.29-.17.61-.37.97.2.91.25 1.75.15 2.57-.1.79-.15 1.64-.15 2.54 0 1.14.05 2.31.15 3.45.1 1.14.15 2.28.15 3.42 0 .35.05.64.15.94.1.29.15.61.15.94-.5 1.49-.65 2.54-.52 3.19.15.61.27 1.17.37 1.61.2.94.3 1.81.3 2.66 0 .85.1 1.75.27 2.66.1.58.4 1.14.89 1.72-.5.91-.57 1.64-.22 2.22.35.55.5 1.32.5 2.22.2.56.3 1.02.3 1.37 0 .35-.05.61-.15.85.6.91 1.02 1.55 1.32 1.9.3.32.52 1.08.72 2.22.6 1.02.87 1.75.87 2.22 0 .44.35.79 1.02 1.02 0 1.26.1 2.11.3 2.57.2.47.5.82.87 1.11.4.29.82.58 1.24.85.45.29.79.85 1.09 1.64 1.57 0 2.68.41 3.43 1.2.72.79 1.76 1.26 3.13 1.37.27.55.65.97 1.09 1.2.42.23.79.56 1.09 1.02.77.23 1.51.32 2.24.26.75-.06 1.34.26 1.84.94.27 0 .47-.12.57-.35.1-.2.5-.2 1.17 0 0 .82.52 1.11 1.59.97 1.07-.18 1.71-.32 1.91-.44 1.24.79 2.46 1.34 3.63 1.64 1.17.26 2.34.41 3.5.41.77 0 1.57-.12 2.38-.35.85-.2 1.69-.32 2.56-.32 1.17-.7 2.04-1.05 2.61-1.11.6-.06 1.12-.21 1.61-.44.87-.35 1.69-.79 2.46-1.37.79-.56 1.61-.97 2.48-1.2.3-.44.67-.82 1.17-1.11.47-.29.94-.58 1.39-.94.42-.35.82-.7 1.14-1.02.35-.35.52-.82.52-1.37.5-.12.89-.35 1.24-.7.32-.32.64-.73.94-1.2.3-.44.6-.88.94-1.29.35-.38.75-.64 1.24-.76zM570.34 517.33h2.46c.5.82 1.04 1.29 1.69 1.46.62.18 1.22.55 1.81 1.11.3.23.52.38.72.44.2.06.4.09.6.09.17 0 .42.12.72.35.3.2.67.61 1.17 1.2l1.17 1.52c.47.35.92.64 1.29.88.4.2.75.61 1.02 1.2.5.12.85.26 1.02.5.2.23.55.29 1.02.18.89 1.37 1.81 2.63 2.78 3.77.97 1.14 2.09 2.16 3.35 3.07 0 .35.15.88.5 1.55.35.7.72 1.37 1.17 2.07.42.67.89 1.26 1.39 1.78.47.53.87.82 1.14.94-.17.94-.25 1.4-.2 1.46.05.06.17.56.35 1.46.3.44.6.88.87 1.29.3.38.65.82 1.02 1.29.7.91 1.04 1.64 1.09 2.22.05.55.57 1.31 1.54 2.22-.1 1.02-.12 1.67-.08 1.9.05.21.12.44.22.67.47.59.85 1.26 1.09 2.05.25.82.7 1.49 1.37 2.08 0 1.58.25 3.19.75 4.79.47 1.58.67 3.19.57 4.79.3.44.5.85.6 1.2.07.32.15.67.2 1.02.05.35.17.64.37.94.2.29.55.67 1.02 1.11-.2.23-.42.55-.65.93-.25.41-.37.73-.37.97.2 1.02.27 1.81.22 2.4-.05.56-.32 1.32-.79 2.22.37 1.02.55 1.87.5 2.57-.05.67-.17 1.32-.37 1.87-.17.58-.3 1.17-.35 1.81-.05.61.12 1.35.5 2.13-.1.79-.22 1.32-.42 1.55-.2.23-.35.41-.45.58-.1.18-.15.5-.15.94 0 .47.15 1.32.45 2.57-.3.47-.52.91-.67 1.29-.12.41-.35.85-.65 1.29-.1.7-.27 1.49-.5 2.4-.25.91-.5 1.84-.75 2.75-.22.91-.45 1.75-.64 2.48-.2.73-.3 1.29-.3 1.64-.47 1.7-1.12 3.3-1.89 4.79-.57.44-1.27 1.02-2.04 1.7.2.23.42.5.65.79.25.26.47.53.67.76-.7 1.02-1.29 2.13-1.81 3.33-.55 1.2-1.24 2.19-2.11 3.01-.2.91-.25 1.49-.15 1.7l-1.61 1.2c-.1.7-.25 1.23-.5 1.64-.25.41-.42.99-.52 1.81-.67.32-1.14.76-1.37 1.29-.25.5-.47 1.23-.67 2.13-.97-.12-1.44-.12-1.44 0s-.4.38-1.17.85c-.6.7-1.27 1.49-2.04 2.4-.79.91-1.56 1.55-2.34 1.9-.77.2-1.49.64-2.11 1.29-.62.61-1.24 1.23-1.81 1.78-1.07 0-1.94.21-2.63.61-.67.38-1.44.88-2.31 1.43-.99.58-1.99.99-3.01 1.2-1.02.23-2.01.64-2.98 1.2h-.94c-.32 0-.65-.09-.94-.32-.47.55-.87.94-1.17 1.11-.27.18-.82.32-1.59.41-1.37.7-2.14 1.02-2.34.97-.2-.06-.57-.32-1.17-.79-.87.58-1.61.91-2.26.97-.62.03-1.24.03-1.89 0-.62-.06-1.27-.06-1.89 0-.62.03-1.24.23-1.81.58-.77-.12-1.32-.26-1.61-.44-.27-.18-.55-.26-.8-.32s-.52-.03-.87.09-.94.44-1.81 1.02c-.5-.12-.94-.26-1.39-.44-.45-.18-.84-.44-1.24-.76-1.27-.12-2.48-.44-3.7-.97a7.878 7.878 0 0 1-3.13-2.31c-.3 0-.6-.09-.87-.23a1.7 1.7 0 0 0-.87-.26c-.79.12-1.24 0-1.39-.35-.15-.35-.32-.61-.52-.85-.67-.23-1.09-.41-1.22-.53-.15-.12-.62-.06-1.39.18-1.17-.91-1.74-1.49-1.74-1.72 0-.21-.55-.21-1.61 0-.3-.91-.62-1.61-1.02-2.13-.4-.5-.79-.97-1.24-1.37-.42-.38-.87-.79-1.29-1.2-.45-.38-.82-.99-1.09-1.78-.8-.35-1.54-.7-2.26-1.02-.75-.35-1.49-.7-2.26-1.05-.2-.79-.2-1.64 0-2.54-.5-1.05-.75-1.84-.79-2.4-.05-.58-.62-1.14-1.69-1.72.2-.67.27-1.23.22-1.64-.05-.38-.15-.76-.3-1.11-.12-.32-.27-.73-.42-1.2-.15-.44-.22-1.02-.22-1.7-.67-1.49-1.04-2.89-1.09-4.21-.05-1.31-.17-2.25-.37-2.84-.27-.55-.57-1.02-.87-1.34-.27-.35-.37-.94-.27-1.72-.2-.47-.4-.85-.6-1.2-.2-.35-.42-.7-.72-1.02-.1-2.08-.72-3.77-1.89-5.15.27-.58.47-1.11.57-1.64.1-.5-.2-.94-.87-1.29 0-.55.02-1.08.07-1.52.05-.47.22-.88.5-1.2-.07-.58-.15-1.05-.2-1.37-.05-.35.07-.82.35-1.37-.2-1.26-.42-2.1-.72-2.57 0-.79.02-1.29.07-1.46.05-.18.22-.59.5-1.29 0-.56-.07-1.11-.2-1.61-.15-.53-.02-1.08.35-1.64-.27-1.72-.32-3.42-.15-5.14.2-1.7.4-3.42.6-5.15.47.82.72 1.67.72 2.57 0 .91-.1 1.72-.3 2.4-.67-.67-.92-1.52-.72-2.48.2-.97.45-1.96.72-2.98.3-1.02.57-2.02.82-2.92.22-.91.4-1.43.5-1.55-.2-.79-.15-1.4.15-1.87.3-.47.52-.96.72-1.55-.37-.91-.5-1.58-.35-2.05.15-.47.45-.97.94-1.55.2-1.93.57-3.83 1.17-5.64.57-1.84 1.02-3.71 1.29-5.67.89-1.14 1.57-2.02 2.04-2.63.5-.64.89-1.75 1.17-3.36.8-.91 1.22-1.52 1.32-1.87.1-.35.4-.7.87-1.02.4-.23.72-.61 1.02-1.11.3-.53.7-.85 1.17-.97.2-.32.37-.73.52-1.2.12-.44.3-.91.5-1.35.87 0 1.51-.23 1.89-.7 1.17-1.7 2.04-2.69 2.63-2.89.57-.23 1.12-1.05 1.59-2.4.87-.23 1.49-.61 1.81-1.14.35-.5.92-.88 1.69-1.11.1-.32.32-.85.72-1.52 1.27 0 2.31-.35 3.13-1.05.82-.67 1.81-1.08 2.98-1.2.77-.56 1.51-1.05 2.19-1.43.67-.41 1.47-.61 2.33-.61.47-.35 1.17-.64 2.04-.94a19.2 19.2 0 0 1 2.76-.7c.97-.15 1.91-.23 2.83-.23.95 0 1.64.12 2.11.32.5-.44.87-.55 1.09-.32.25.2.62.32 1.09.32.4 0 .94-.23 1.69-.76.72-.53 1.47-.76 2.26-.76.57 0 1.02.12 1.37.32.35.23.65.47.87.7.25.23.52.44.82.67.27.23.72.35 1.29.35.97 0 1.84-.18 2.56-.53.72-.32 1.47.06 2.26 1.2zm21.84 50.54c-.3-.23-.55-.5-.75-.76-.2-.29-.37-.61-.57-.97 0-1.46-.25-2.83-.72-4.09-.5-1.26-.85-2.63-1.02-4.12-.4-.23-.65-.53-.75-.94-.1-.41-.2-.85-.3-1.29-.67-.91-1.24-1.67-1.74-2.22-.47-.59-.72-1.32-.72-2.22-.3.21-.67-.23-1.09-1.37-.45-1.14-.75-1.9-.94-2.22-.2-.47-.42-.88-.67-1.2-.22-.35-.45-.76-.65-1.23a12.5 12.5 0 0 1-1.44-.76c-.5-.29-.84-.7-1.02-1.29-.99-.23-1.72-.61-2.19-1.2 0-.91-.25-1.61-.75-2.05-.47-.47-.82-1.08-1.02-1.9-.67-.21-1.22-.56-1.59-1.02-.1-.44-.25-.73-.45-.85s-.42-.35-.72-.7c-.87-.09-1.56-.44-2.04-1.02-.5-.56-1.17-.61-2.04-.18-.6-.44-.92-.91-1.02-1.35-.67-.23-1.17-.32-1.47-.26-.27.06-.62-.03-1.02-.26-.87-1.02-1.57-1.64-2.11-1.81a6.05 6.05 0 0 0-1.66-.23c-.5.67-1.27.91-2.34.67-.37.35-.8.61-1.24.79-.42.15-.89.06-1.37-.26-.6.44-1.07.67-1.47.67-.57 0-1.12-.12-1.59-.35-.5-.21-1.02-.32-1.61-.32-.67 0-1.37.09-2.04.26-.67.15-1.39.18-2.19.06-.77.94-1.64 1.26-2.61 1.05-.5.67-.94 1.08-1.39 1.2-.42.12-.82.23-1.17.41-.32.18-.65.53-.94 1.02-.3.53-.57 1.4-.87 2.66-.67-.32-1.17-.53-1.47-.59-.27-.06-.5 0-.65.18-.15.15-.35.38-.57.67-.25.29-.67.55-1.24.76l-.6 1.72a6.79 6.79 0 0 0-2.11 2.22c-.52.91-1.27 1.61-2.24 2.05-.3.94-.65 1.61-1.02 2.07-.4.44-.84 1.02-1.32 1.7 0 .58-.25 1.26-.72 2.07-.1.67-.4 1.14-.89 1.37-.17.91-.3 1.84-.35 2.81-.05.97-.32 1.93-.79 2.84-.2.35-.37.73-.52 1.2-.15.47-.22.85-.22 1.2.2 1.14.22 1.87.07 2.22-.15.35-.27.67-.37.93-.07.29-.1.64-.05 1.05.05.38.25 1.05.65 1.96h-1.61c0 .44.02.91.07 1.37.05.44-.15.91-.64 1.37 0 .44.05.88.15 1.29.1.38.15.88.15 1.43-.3.35-.45.61-.45.79 0 .17-.1.41-.27.76.17.7.25 1.43.2 2.22-.05.82-.07 1.61-.07 2.4-.77 1.14-1.07 2.63-.87 4.47-.1 1.14-.3 1.93-.57 2.4-.2 1.37-.22 2.16-.07 2.4.15.23.32.73.5 1.52.2.58.27 1.14.22 1.64-.05.53-.03 1.05.07 1.64a7.681 7.681 0 0 1 1.39 4.18c.05 1.55.3 2.66.79 3.36.3.44.6.88.95 1.29.35.38.42.88.22 1.43.47.7.72 1.2.72 1.55v.85c0 .23.1.44.3.61.2.18.67.44 1.44.76-.17.23-.4.5-.64.79-.25.26-.42.58-.5.94.37.23.62.53.72.94.1.41.35.73.72.94.3 1.26.45 2.51.45 3.77 1.17.58 1.86 1.4 2.11 2.48.22 1.08.84 2.08 1.81 3.01.47-.12 1.02.18 1.59.85.3.58.65.82 1.02.76.4-.06.75-.09 1.02-.09l-.12 1.72c1.84.79 3.25 1.46 4.27 1.96 1.02.53 2.36.61 4.03.26.47.7.87 1.11 1.14 1.29.3.18.57.21.82.09.22-.12.55-.23.94-.35.37-.12.87-.18 1.44-.18.6.82 1.07 1.14 1.47.97.4-.18.97-.26 1.74-.26.3 0 .6.06.87.18.3.12.6.18.89.18.47.12.94-.15 1.37-.79.45-.61 1.19-.53 2.26.26.77-.56 1.61-.88 2.56-.94.92-.06 1.81-.03 2.68.09 1.07-1.26 2.41-2.08 4-2.48 1.61-.41 3.08-.79 4.45-1.11.77-1.02 1.94-1.67 3.48-1.9.6-.67 1.22-1.23 1.91-1.61.67-.41 1.39-.85 2.19-1.29.17-.58.37-1.11.57-1.64.2-.53.4-1.05.57-1.64 1.66-1.7 2.91-3.3 3.73-4.79.82-1.46 1.51-3.07 2.11-4.79.47-.23.77-.41.87-.58.1-.18.25-.44.42-.79.3-1.46.4-2.78.3-3.92.5-1.26.89-2.13 1.24-2.57.35-.47.27-1.43-.22-2.92 1.07-.79 1.64-1.72 1.69-2.84.05-1.08.07-2.25.07-3.51.57-1.14.92-1.99 1.02-2.57.07-.55.05-1.46-.15-2.72.57-1.37.79-3.07.65-5.06-.15-2.02-.22-3.8-.22-5.41 0-.56-.12-.94-.35-1.11-.25-.17-.37-.47-.37-.93l.45-1.2zM624.93 600.58c-.67-.35-.92-1.08-.72-2.22.2-1.14.35-1.99.45-2.57-.4-.58-.45-1.08-.15-1.55.27-.44.42-.96.42-1.55 0-.44-.1-.88-.27-1.26-.2-.41-.3-.91-.3-1.46 0-.47.05-.88.15-1.2.1-.35.15-.76.15-1.2 0-1.49-.08-2.95-.22-4.39-.15-1.43-.27-2.92-.37-4.53-.1-.55-.1-1.08 0-1.55.1-.44.15-.96.15-1.52 0-1.17-.4-2.02-1.17-2.57.1-2.28.25-4.56.45-6.78.17-2.22.27-4.47.27-6.75 0-.58-.05-1.08-.15-1.55-.07-.47-.12-.97-.12-1.55-.2-1.46-.27-2.6-.22-3.33.05-.73-.12-1.4-.52-1.96.6-1.37.79-2.4.6-3.1-.2-.67-.3-1.64-.3-2.89 0-.7.05-1.23.15-1.64.1-.41.17-.82.22-1.29.05-.47.03-.93-.07-1.46-.1-.5-.4-1.11-.87-1.78.1-.58.17-1.05.27-1.46.1-.41.1-.88 0-1.46a8.762 8.762 0 0 1-.8-3.33c-.05-1.2-.32-2.37-.79-3.51.47-.35.64-.67.5-.96-.12-.26-.2-.7-.2-1.29 0-.91.15-1.7.5-2.4.35-.67.52-1.4.52-2.22 0-.67-.05-1.37-.15-2.05-.1-.67-.15-1.37-.15-2.05 1.07-.23 1.81-.7 2.26-1.37.42-.7 1.14-1.32 2.11-1.9.67 0 1.29.06 1.89.18.57.12 1.22.18 1.89.18.3 0 .55-.06.8-.18s.52-.18.79-.18c.7 0 1.34.12 1.99.35.62.23 1.32.35 2.11.35.17 0 .42-.06.72-.18s.52-.18.72-.18c.5 0 .89.06 1.24.18s.75.18 1.24.18c.67 0 1.34-.21 2.04-.61.67-.38 1.34-.7 2.04-.94.47.58.85.76 1.09.61.25-.18.5-.26.8-.26 1.47.32 2.53.38 3.21.18.67-.23 1.27.12 1.74 1.02.97-.23 1.89-.29 2.78-.18.87.12 1.74.32 2.61.58.87.29 1.74.58 2.61.88.89.26 1.76.47 2.63.58 1.74 2.86 4.08 4.47 6.98 4.79.97.82 1.89 1.37 2.78 1.72.87.35 1.44.73 1.74 1.2.67.55 1.27.79 1.74.67.5-.12 1.27.23 2.34 1.02.97.58 1.57.79 1.81.61.25-.18.47-.32.67-.44-.1 1.05-.08 1.49.05 1.37.15-.12.37.12.67.7.97 0 1.64.29 2.04.94.37.61 1.12.94 2.19.94 0 1.26.17 2.13.5 2.66.35.53.67 1.29.94 2.31.6.7 1.14 1.37 1.69 2.05.52.7.89 1.49 1.09 2.4.47.23.79.47.94.7.15.23.45.29.94.17.1.79.3 1.43.57 1.87.3.47.7.91 1.17 1.37.97 1.26 1.74 2.57 2.34 3.95.57 1.37 1.42 2.63 2.46 3.77.2.56.27 1.17.22 1.78-.05.64.02 1.17.22 1.64 0 .35.12.59.37.76.22.18.47.32.72.44s.5.29.72.5c.25.23.37.58.37 1.05 0 .32-.07.64-.22.94-.15.29-.22.53-.22.76 0 .58.15 1.14.45 1.72.3.55.52 1.08.72 1.55.5 1.02.72 2.13.67 3.33-.05 1.2.2 2.19.8 2.98 0 .47-.08.85-.22 1.11-.15.29-.17.73-.07 1.29-.1.35-.05.64.15.88.2.23.35.5.45.85-.3.91-.42 1.78-.37 2.57.05.79.08 1.64.08 2.57.1.67.07 1.14-.08 1.37-.15.21-.22.5-.22.85.2.23.25.7.15 1.46-.1.73-.25 1.49-.45 2.31-.17.79-.4 1.55-.65 2.22-.25.67-.47 1.2-.65 1.55.27 1.14.2 2.25-.3 3.33s-.62 1.9-.45 2.48c.2.35.37.56.52.67.15.12.22.47.22 1.05-1.07.91-1.71 1.75-1.89 2.54-.2.82-.3 2.02-.3 3.63 0 .56-.17.91-.52 1.02-.32.12-.6.26-.8.5-.2.47-.37.88-.5 1.2-.15.35-.47.7-.97 1.02.2.58.2.97 0 1.11-.17.18-.47.38-.87.61-.2.23-.32.61-.42 1.11-.1.53-.82 1.05-2.19 1.64-.1.67-.27 1.11-.52 1.29-.22.18-.25.76-.07 1.78-.57.12-1.04.26-1.37.44-.35.18-.77.47-1.24.94-.2.47-.42.91-.65 1.37-.25.47-.42.97-.52 1.55-.47.44-.92.76-1.32.94-.37.18-.67.58-.87 1.29-.57.47-1.07.73-1.44.85-.4.12-.65.7-.75 1.72-.47-.23-1.17-.23-2.04 0-.87.23-1.49.5-1.89.85-.3.35-.52.55-.72.61-.2.06-.5.18-.87.41-.97.58-1.96 1.2-2.93 1.9-.97.67-1.89 1.4-2.76 2.22-1.27 0-2.48.15-3.7.41-1.22.29-2.21 1.14-2.98 2.48-3.3.35-6.16 1.61-8.6 3.77-.6-.21-1.19-.21-1.81 0-.65.23-1.19.23-1.69 0-.47.35-.99.61-1.51.79-.55.18-1.04.53-1.54 1.11-1.34-.12-2.41.03-3.21.41-.77.41-1.79.73-3.06.97-.57.23-1.19.32-1.81.32-.62 0-1.24.06-1.81.18-1.27.23-2.24.82-2.91 1.72h-1.61c-.57 0-.97.29-1.17.85-.87-.56-1.72-.85-2.53-.85-.85 0-1.69-.12-2.56-.35-.37-.67-.67-1.2-.87-1.55-.2-.32-.67-.44-1.47-.32-.17-1.84-.92-2.81-2.16-2.92v-2.4c0-.79-.25-1.49-.75-2.05.2-.59.5-1.35.87-2.31.4-.99.6-1.75.6-2.31 0-.23-.1-.53-.3-.88-.2-.32-.35-.61-.42-.85.47-1.37.6-2.51.35-3.42-.25-.91-.35-2.08-.35-3.42 0-.35.02-.67.12-.97.1-.26.15-.58.15-.94 0-.35-.1-.64-.27-.94-.2-.29-.3-.61-.3-.94 0-.94.15-1.84.42-2.75.3-.91.45-1.84.45-2.75 0-.55-.1-1.11-.3-1.64-.2-.5-.27-1.05-.27-1.61.17-1.49.22-2.37.12-2.66-.1-.29-.12-.64-.12-1.11l.27-1.37zm10.93-27.74c.1.56.2 1.37.35 2.4.15 1.02.42 1.75.82 2.22-.1.35-.25.64-.45.94-.2.29-.3.61-.3.94 0 .35.05.73.15 1.14.1.38.2.7.3.94.4 1.81.52 3.63.42 5.38-.07 1.78-.12 3.57-.12 5.41.37.47.57.97.57 1.55v1.7c0 .91.2 1.93.57 3.01.4 1.08.25 2.02-.42 2.81.2.59.27 1.23.22 1.9-.05.67-.08 1.37-.08 2.05 0 .94.12 1.72.35 2.4.25.7.37 1.49.37 2.4.3 1.61.5 2.75.57 3.45-.17.56-.45.88-.79.94-.32.06-.5.29-.5.76v4.3c0 .91.02 1.72.08 2.48.05.73.07 1.11.07 1.11.27.55.57 1.02.87 1.34.27.35.52.82.72 1.37.77-.21 1.54-.47 2.26-.76.72-.29 1.52-.38 2.41-.26.47-.56.99-1.02 1.51-1.37.55-.32 1.04-.67 1.54-1.02.27.58.62.85 1.02.85.37 0 .79-.09 1.22-.32.45-.23.89-.5 1.32-.79.45-.26.89-.41 1.39-.41.3-.47.77-.91 1.44-1.37.5.23 1.29.15 2.41-.26 1.12-.41 1.91-.64 2.41-.76.2-.12.45-.32.79-.61.35-.29.6-.47.79-.58.77-.35 1.52-.61 2.19-.79.67-.18 1.37-.47 2.04-.94.2-.47.42-.82.67-1.11.22-.29.5-.58.79-.94.97.35 1.84.38 2.61.18a7.19 7.19 0 0 0 2.19-1.11c.67-.53 1.37-1.08 2.04-1.64.67-.58 1.47-1.02 2.34-1.37-.2-.91-.05-1.67.42-2.22.5 0 .87-.12 1.09-.35.25-.23.5-.47.75-.67.22-.23.5-.47.8-.7.3-.23.67-.29 1.17-.18.77-1.46 1.64-2.72 2.61-3.77.97-1.02 1.76-2.34 2.34-3.92.57-.7.97-1.26 1.17-1.72.2-.47.25-1.02.15-1.7.67.21.99.26.95.15-.05-.12.17-.32.64-.67-.1-.91 0-1.75.3-2.48s.2-1.58-.3-2.48c1.07-1.26 1.54-2.81 1.39-4.62-.15-1.84-.07-3.54.22-5.15-.4-.35-.6-.73-.6-1.2s.1-.94.3-1.46c.2-.5.42-1.02.64-1.52.25-.53.37-1.02.37-1.46 0-1.26-.2-2.48-.57-3.68-.4-1.2-.65-2.43-.75-3.68a3.9 3.9 0 0 1-1.09-2.07c-.15-.79-.2-1.64-.2-2.54-.79-.94-1.32-1.93-1.61-3.01-.3-1.08-.47-2.25-.57-3.51-.6-.58-1.02-1.23-1.32-1.96-.3-.76-.55-1.52-.72-2.34-.6-.44-1.14-.82-1.69-1.11-.52-.26-1.04-.7-1.51-1.29-.2-.91-.4-1.58-.6-2.05-.87-.47-1.49-1.05-1.89-1.78-.4-.76-1.12-1.23-2.19-1.46-.2-.94-.52-1.49-1.02-1.72-.47-.23-.92-.61-1.32-1.2h-2.46c0-.35-.08-.56-.22-.67a4.06 4.06 0 0 0-.57-.35c-.25-.12-.45-.26-.6-.44-.15-.18-.22-.47-.22-.94-.77-.12-1.64-.67-2.61-1.7-.2-.12-.37-.06-.52.15-.12.23-.45.29-.94.18-.47-.91-1.02-1.58-1.59-2.05-.6-.47-1.37-.73-2.34-.85-.1-.7-.32-1.11-.65-1.2-.35-.12-.62-.47-.79-1.05-.7-.09-1.24-.26-1.69-.5-.42-.23-.85-.5-1.24-.79-.37-.26-.85-.47-1.37-.58-.55-.12-1.24-.06-2.11.18-.5-.91-.92-1.43-1.32-1.55-.4-.12-.82-.18-1.32-.18-.3 0-.55.03-.79.09-.25.06-.52.09-.8.09-1.07-.67-1.91-.79-2.56-.35-.62.47-1.19.7-1.66.7-.77-.35-1.42-.38-1.89-.09-.5.29-1.07.58-1.76.94-.97-.23-1.94-.35-2.91-.35-.97 0-1.94-.06-2.91-.15-.4.44-.57 1.02-.57 1.7 0 .7.05 1.37.2 2.05.15.7.35 1.34.6 1.99.25.61.45 1.17.65 1.64-.2.32-.37.67-.5 1.02-.15.32-.32.73-.52 1.2.4.67.57 1.26.52 1.7-.05.47.2 1.02.8 1.72-.6.67-.85 1.11-.8 1.29.05.18.03.41-.07.76.67 2.28.89 4.73.65 7.37-.25 2.63.02 4.97.79 7.02-.37 1.05-.55 1.99-.5 2.83.05.85.12 1.81.22 2.84.07 1.02.17 2.02.27 2.98.1.97.2 1.64.3 1.99 0 .56.07 1.02.22 1.37.15.32.22.73.22 1.2l-1.17.85zM799.19 517.33c-.4.12-.67.38-.8.79-.15.38-.47.59-.94.59-.1.58.05.97.5 1.11.45.18.65.5.65.97 0 .67-.25 1.17-.8 1.43-.52.29-.84.79-.94 1.46-.97-.23-1.61-.18-1.96.18-.35.35-.85.73-1.54 1.2-.57-.12-1.09-.09-1.59.09s-1.02.26-1.59.26c-.4 0-.75.18-1.02.5-.3.35-.65.58-1.02.7-.8.23-1.59.29-2.41.18-.82-.12-1.64.06-2.41.5-.2-.56-.52-.76-1.02-.58-.47.18-.92.23-1.32.23-.47 0-.92-.12-1.29-.41-.4-.29-.87-.44-1.47-.44-.77 0-1.57.18-2.41.53-.82.35-1.61.5-2.38.5-.77 0-1.49-.09-2.11-.23-.65-.18-1.34-.26-2.11-.26-.6 0-.97.21-1.17.59-.2.41-.55.73-1.02.97-1.74-.82-3.73-1.2-5.96-1.14-2.24.06-4.17.55-5.84 1.46a8.09 8.09 0 0 0-4.65-.67c-1.66.23-3.25.06-4.82-.53-.87.58-1.91.82-3.13.7-1.19-.12-2.19-.47-2.98-1.05-.77.35-1.59.5-2.46.44-.87-.06-1.71-.09-2.48-.09-.67.47-.89 1.05-.65 1.81.25.73.35 1.4.35 1.96 0 .35-.05.7-.2 1.02-.15.35-.22.7-.22 1.02 0 .58.1 1.11.3 1.55.17.47.32.96.42 1.55.3 2.4.45 4.73.45 7.02-.3 1.37-.32 2.19-.07 2.48.25.29.35.61.35.94 0 .35-.05.7-.12 1.02-.1.35-.15.76-.15 1.2 0 .35.05.67.15.96.07.26.12.59.12.94s-.1.61-.35.85c-.25.23-.37.58-.37 1.02 0 .47.08.94.22 1.37.15.47.22.97.22 1.55 0 .47-.07.85-.22 1.2s-.22.73-.22 1.2c0 .23.17.91.52 2.05.32 1.14.5 1.78.5 1.9 1.47-.59 2.96-.67 4.52-.26 1.54.41 3.06.61 4.5.61.7 0 1.32-.15 1.91-.44.57-.29 1.24-.38 2.04-.26 1.24 0 2.09.03 2.46.09.4.06.77.09 1.17.09.77 0 1.32-.18 1.61-.53.27-.32.67-.5 1.14-.5.3 0 .6.09.89.26.27.15.62.23 1.02.23.57 0 1.19-.29 1.89-.94.67-.61 1.22-1.23 1.59-1.78.3.32.65.47 1.02.41.4-.06.77-.12 1.09-.18.35-.06.72-.06 1.09 0 .4.06.82.26 1.32.61.1-.12.35-.29.72-.53.4-.21.75-.38 1.09-.5.35-.12.67-.17 1.02-.17s.52.23.52.67c1.64-.79 3.01-1.11 4.08-.94 1.07.18 2.36.26 3.93.26 1.27 0 2.48-.23 3.7-.7 1.22-.44 2.46-.67 3.73-.67.47 0 .89-.06 1.24-.18.32-.12.7-.17 1.07-.17 1.17.58 1.84.76 1.99.53.12-.23.4-.35.8-.35.67 0 1.42.32 2.26.94.82.64 2.16.85 4 .61.3.67.72 1.2 1.32 1.55-.1.91-.02 1.7.27 2.4.3.67.7 1.37 1.17 2.05-.1.59-.2 1.08-.3 1.55-.1.44.1.91.6 1.37-.3.67-.7 1.26-1.17 1.7-.5.47-.87 1.02-1.17 1.72-.77-.23-1.42-.18-1.89.18-.5.32-1.02.61-1.61.85-.67.23-1.34.26-2.04.09-.67-.18-1.24.03-1.74.58-.37-.55-.85-.7-1.39-.41-.52.26-1.04.41-1.51.41-1.27-.2-1.99-.17-2.19.09-.2.29-.5.44-.87.44-.1-.58-.42-.79-.95-.67-.55.09-.89-.06-1.09-.53-.4.67-.97.91-1.74.67-.79-.2-1.42-.32-1.91-.32-1.24 0-2.44.29-3.55.94-1.12.61-2.31.44-3.58-.61-.37.47-.87.7-1.44.7-.5 0-.92-.06-1.32-.18s-.82-.18-1.32-.18c-.77 0-1.44.15-2.04.44-.57.29-1.22.41-1.89.41-.87 0-1.56-.2-2.04-.67-1.07.56-2.31.82-3.7.76-1.42-.06-2.61.26-3.58.97-.97.21-1.69.09-2.19-.35-1.74.91-3.6 1.32-5.59 1.2-2.01-.12-3.93.23-5.77 1.02-.57-.12-1.02-.38-1.32-.76-.27-.41-.77-.38-1.44.09-.77 1.81-1.29 3.95-1.54 6.4-.25 2.46.02 4.65.79 6.61a5.7 5.7 0 0 1-.72 1.29c-.3.41-.52.82-.72 1.29 0 1.14.25 1.99.72 2.57 0 .32-.1.64-.3.94-.17.29-.32.58-.42.94-.1.47-.1.91 0 1.37.1.47.15.91.15 1.37 0 .79-.1 1.58-.3 2.31-.2.73-.3 1.58-.3 2.48 0 .56.1 1.05.3 1.46.2.38.3.88.3 1.46 0 .55-.17.91-.52 1.02-.32.12-.55.32-.65.67-.1.58-.05 1.02.15 1.37.17.35.05.73-.45 1.2.67 1.26 1.04 2.72 1.09 4.36.05 1.67.52 3.07 1.39 4.21-.4.91-.47 1.96-.22 3.16.25 1.2.42 2.28.5 3.19.5.12.97.06 1.39-.18.45-.23.89-.29 1.39-.18.67.47 1.37.67 2.11.67.72 0 1.42-.06 2.11-.23a11.6 11.6 0 0 1 2.04-.35c.67-.06 1.34.15 2.04.58.27-.2.92-.32 1.89-.32.97 0 2.11-.06 3.43-.18a35 35 0 0 0 4-.61c1.34-.26 2.51-.76 3.48-1.43.4.12.72.26.94.5.25.23.52.47.82.7 1.07-.7 2.19-1.02 3.33-.97 1.17.06 2.29-.03 3.35-.23.1.44.32.73.67.85.32.12.65.23.94.35 1.34-.58 2.68-.79 4-.61 1.32.18 2.63.09 4-.26.77-.2 1.47-.58 2.11-1.11.62-.5 1.34-.88 2.11-1.11.67.58 1.47.85 2.41.79.92-.06 1.86-.21 2.83-.44s1.99-.38 3.06-.44 2.14.26 3.21.94v1.72c.47.47.97.88 1.44 1.29.5.41.92.88 1.32 1.46.1.79-.15 1.64-.72 2.57 0 .2.08.35.22.41.12.06.32.15.57.26.25.12.42.23.5.35.1.12.1.41.02.85.08.47-.15.94-.75 1.46-.57.53-1.27.94-2.04 1.29-.77.35-1.59.61-2.46.85-.89.23-1.57.23-2.04 0-1.37.91-2.81 1.64-4.3 2.13-1.52.53-3.08.79-4.75.79-.47 0-.99-.06-1.52-.18-.55-.12-1.09-.18-1.69-.18-1.34.35-2.36.44-3.06.26-.67-.18-1.34.03-2.04.58-.47-.21-1.02-.44-1.59-.67-.6-.23-1.17-.35-1.74-.35-1.27.23-1.99.18-2.11-.18-.15-.32-.42-.55-.82-.67-.97.47-2.11.58-3.4.44-1.32-.18-2.36.03-3.13.58-.5 0-.82-.06-.94-.18-.15-.12-.27-.23-.37-.32-.1-.12-.25-.12-.45 0-.17.09-.62.44-1.29 1.02-.6-.12-1.32-.12-2.19 0-.87.12-1.57-.06-2.04-.53-.5.35-.99.64-1.54.85-.52.23-1.04.58-1.51 1.05-.5.2-.82.2-.94 0-.15-.23-.42-.35-.82-.35-.37 0-.7.12-.94.35-.25.2-.5.32-.79.32-.3 0-.57-.06-.87-.18-.3-.12-.6-.15-.87-.15-.6 0-1.12.12-1.61.41-.47.29-1.02.44-1.59.44-2.14-.35-3.83-.15-5.09.58-1.27.76-2.63 1.11-4.08 1.11-.79 0-1.47-.26-2.04-.85-.6-.55-1.37-.73-2.34-.5.1-.7 0-1.14-.3-1.29-.3-.18-.52-.38-.72-.61-.2-.47-.3-.94-.3-1.46 0-.5-.1-.99-.3-1.43-.27-.82-.7-1.46-1.22-1.99-.55-.5-.94-1.11-1.24-1.78-.2-.58-.27-1.02-.22-1.29.05-.29-.12-.73-.5-1.29-.3-.58-.35-1.08-.15-1.55.17-.47-.1-.79-.89-1.02.79-.91 1.02-2.11.75-3.6-.3-1.49-.45-2.81-.45-3.95 0-.67.12-1.34.37-1.96.25-.64.37-1.34.37-2.16 0-.32-.12-.64-.37-.94-.25-.29-.37-.64-.37-1.11.1-1.26 0-1.87-.3-1.87.4-.7.64-1.67.75-2.92.1-1.26.15-2.34.15-3.24 0-.94-.15-1.84-.45-2.75-.3-.91-.45-1.84-.45-2.75 0-1.14.12-2.22.37-3.24s.37-2.1.37-3.27c-.3-.55-.35-1.02-.15-1.34.2-.35.3-.76.3-1.2 0-.58-.07-1.34-.22-2.31-.15-.99-.37-1.75-.67-2.34.6-.91.89-2.02.89-3.33s.37-2.43 1.17-3.33c.07-1.26.05-2.6-.15-4.03-.2-1.43 0-2.78.57-4.03-.37-.67-.57-1.43-.57-2.31 0-.85.02-1.7.07-2.54.05-.88.05-1.72 0-2.57-.05-.88-.27-1.64-.67-2.31.5-.47.75-1.14.79-1.99.05-.85 0-1.78-.2-2.83-.2-1.02-.4-2.02-.6-2.98-.2-.96-.27-1.81-.27-2.48.17-.47.22-.82.12-1.11-.1-.29-.12-.56-.12-.79 0-.91.05-1.72.2-2.46.15-.76.22-1.52.22-2.34 0-.67-.1-1.35-.3-2.05-.17-.67-.27-1.37-.27-2.05 0-1.72.25-3.51.8-5.41.52-1.87.42-3.68-.37-5.38.1-.93.5-1.78 1.17-2.57-.47-1.96-.67-4-.57-6.17.1-2.16.27-4.24.57-6.17.2-.23.5-.44.87-.61.4-.15.7-.41.87-.76.2-.35.72-.73 1.54-1.2.82-.47 1.39-.67 1.66-.67.87-.12 1.59-.09 2.11.09.55.15 1.12.41 1.76.76.62.35 1.19.73 1.74 1.2.52.47.94.73 1.24.85 1.17-.23 2.21-.09 3.13.44.92.5 1.91.76 2.98.76.77 0 1.54-.09 2.34-.26.77-.15 1.49.03 2.16.61 1.76-1.02 3.6-1.49 5.54-1.37 1.94.12 3.83.18 5.69.18.47 0 .89-.12 1.22-.35.35-.23.72-.44 1.09-.67.89.23 1.76.32 2.63.32h2.61c1.47.23 2.51.23 3.13 0 .65-.21 1.34-.32 2.11-.32.5 0 .89.12 1.24.32.35.23.75.35 1.24.35 1.07 0 2.16-.12 3.28-.35 1.12-.21 2.21-.32 3.28-.32.57-.82 1.39-1.23 2.46-1.29 1.07-.06 1.99-.38 2.76-.94 1.37.55 2.81.88 4.3.94 1.52.06 2.96-.38 4.3-1.29.4.23.8.41 1.24.5.45.12.7.47.79 1.05.97-.23 1.69-.15 2.11.23.45.41 1.04.67 1.81.79.1.67.17 1.37.22 2.05.05.67.17 1.37.37 2.05z" class="fil2" style="stroke:#ec4a3f;stroke-width:7.27;stroke-linejoin:round;stroke-miterlimit:22.9256"/></g><path d="M0 0h809.5v809.5H0z" class="fil1"/></g></svg>