<svg aria-hidden="true" style="position: absolute; width: 0; height: 0; overflow: hidden;" version="1.1" xmlns="http://www.w3.org/2000/svg" xmlns:xlink="http://www.w3.org/1999/xlink">
<defs>
<symbol id="icon-quote-left" viewBox="0 0 32 32">
<path d="M26.119 27.494c3.811-2.312 4.498-4.31 4.498-13.243v-7.996h-12.493v12.493h3.435c3.186 0 3.436 0.125 3.436 1.437 0 1.749-1.624 4.186-2.874 4.186-0.563 0-0.875 0.687-0.875 2.186 0 1.874 0.188 2.186 1.375 2.186 0.812 0 2.374-0.563 3.498-1.249zM9.878 27.494c3.811-2.312 4.498-4.31 4.498-13.243v-7.996h-12.493v12.493h3.435c3.186 0 3.436 0.125 3.436 1.437 0 1.749-1.624 4.186-2.874 4.186-0.563 0-0.875 0.687-0.875 2.186 0 1.874 0.188 2.186 1.375 2.186 0.812 0 2.374-0.563 3.498-1.249z"></path>
</symbol>
<symbol id="icon-arrow-down" viewBox="0 0 32 32">
<path d="M14.666 5.333v21.334c0 0.725 0.608 1.333 1.334 1.333s1.333-0.608 1.333-1.333v-21.334c0-0.725-0.608-1.333-1.333-1.333-0.726 0-1.334 0.608-1.334 1.333zM24.397 16.398l-9.193 9.193c-0.304 0.304 1.895 0.304 1.591 0l-9.193-9.193c-0.226-0.245-0.55-0.398-0.908-0.398-0.010 0-0.019 0-0.029 0l0.001-0c-0.725 0-1.333 0.608-1.333 1.333 0 0.375 0.14 0.702 0.398 0.936l9.193 9.193c0.273 0.282 0.654 0.456 1.076 0.456s0.803-0.175 1.076-0.456l0-0 9.193-9.193c0.257-0.234 0.397-0.561 0.397-0.936 0-0.725-0.608-1.333-1.333-1.333-0.374 0-0.702 0.14-0.936 0.398z"></path>
</symbol>
<symbol id="icon-line" viewBox="0 0 30 32">
<path d="M28.351 8.52c0.175 0.316 0.278 0.692 0.278 1.093 0 0.862-0.477 1.612-1.181 2.001l-0.012 0.006c-1.361 0.742-2.641 1.58-4.020 2.483l-0.742 0.486c-1.527 0.995-3.082 1.942-4.602 2.869-0.123 0.074-0.246 0.15-0.369 0.225-1.649 1.005-3.257 1.991-4.819 3.033l-0.441 0.293c-0.73 0.482-1.071 0.707-1.284 1.013-0.417 0.609-1.108 1.004-1.892 1.004-1.262 0-2.286-1.023-2.286-2.286 0-0.499 0.16-0.961 0.432-1.337l-0.005 0.007c0.771-1.109 1.997-1.891 2.677-2.326 0.101-0.065 0.19-0.121 0.263-0.17 1.649-1.099 3.33-2.13 4.975-3.133l0.359-0.219c1.532-0.933 3.029-1.846 4.495-2.801 0.233-0.151 0.467-0.305 0.704-0.461 1.374-0.901 2.83-1.855 4.368-2.693 0.316-0.175 0.692-0.278 1.093-0.278 0.862 0 1.612 0.477 2.001 1.181l0.006 0.012zM29.99 28.193c0.003 0.045 0.005 0.098 0.005 0.152 0 1.209-0.938 2.199-2.127 2.28l-0.007 0-0.011 0.001c-3.199 0.214-6.422 0.429-9.654 0.582-0.801 0.038-1.518 0.064-2.222 0.089-1.17 0.038-2.083 0.078-2.994 0.126l0.372-0.016c-0.27 0.121-0.585 0.192-0.917 0.192-1.262 0-2.286-1.023-2.286-2.286 0-0.821 0.433-1.54 1.082-1.944l0.010-0.006c0.833-0.512 1.706-0.524 1.958-0.527l0.055-0.002c0.825-0.043 1.744-0.077 2.641-0.11 0.731-0.027 1.447-0.054 2.083-0.084 3.184-0.151 6.367-0.363 9.577-0.577 0.045-0.003 0.098-0.005 0.152-0.005 1.209 0 2.199 0.938 2.28 2.127l0 0.007zM8.208 0.226c0.772 0.378 1.294 1.158 1.294 2.059 0 0.361-0.084 0.702-0.232 1.006l0.006-0.013c-0.405 0.84-0.81 1.697-1.221 2.562-1.175 2.48-2.384 5.031-3.695 7.475-0.394 0.723-1.148 1.205-2.014 1.205-1.262 0-2.286-1.023-2.286-2.286 0-0.396 0.101-0.768 0.278-1.093l-0.006 0.012c1.252-2.335 2.39-4.735 3.55-7.183 0.42-0.887 0.843-1.78 1.276-2.678 0.378-0.772 1.158-1.294 2.060-1.294 0.361 0 0.702 0.084 1.005 0.232l-0.013-0.006z"></path>
</symbol>
<symbol id="icon-calendar" viewBox="0 0 32 32">
<path d="M4.133 0.095c-0.833 0.301-1.284 0.988-1.284 1.966v0.42l-0.732 0.025c-0.583 0.018-0.802 0.050-1.028 0.156-0.375 0.169-0.782 0.576-0.958 0.951l-0.132 0.288v26.723l0.132 0.288c0.176 0.375 0.582 0.782 0.958 0.957l0.288 0.132h29.245l0.288-0.132c0.375-0.175 0.782-0.582 0.958-0.957l0.132-0.288v-26.723l-0.132-0.288c-0.175-0.375-0.582-0.782-0.958-0.951-0.225-0.107-0.445-0.138-1.015-0.156l-0.732-0.026-0.026-0.544c-0.031-0.645-0.175-1.008-0.55-1.383-0.383-0.382-0.745-0.532-1.316-0.532s-0.933 0.15-1.315 0.532c-0.375 0.375-0.52 0.732-0.551 1.389l-0.025 0.55h-3.733l-0.025-0.55c-0.031-0.658-0.176-1.014-0.551-1.389-0.382-0.382-0.745-0.532-1.316-0.532-0.569 0-0.932 0.15-1.315 0.532-0.375 0.375-0.519 0.732-0.55 1.389l-0.026 0.55h-3.732l-0.026-0.55c-0.031-0.658-0.175-1.014-0.55-1.389-0.383-0.382-0.745-0.532-1.316-0.532s-0.933 0.15-1.316 0.532c-0.375 0.375-0.519 0.732-0.55 1.389l-0.025 0.55h-3.733l-0.025-0.55c-0.031-0.658-0.176-1.014-0.551-1.389-0.501-0.501-1.271-0.683-1.91-0.457zM5.166 1.46c0.125 0.132 0.156 0.232 0.176 0.595l0.025 0.438h-1.278l0.026-0.432c0.025-0.451 0.125-0.645 0.395-0.764 0.188-0.081 0.482-0.006 0.657 0.163zM12.681 1.46c0.125 0.132 0.156 0.232 0.175 0.595l0.025 0.438h-1.277l0.025-0.432c0.025-0.451 0.125-0.645 0.395-0.764 0.188-0.081 0.482-0.006 0.658 0.163zM20.196 1.46c0.125 0.132 0.156 0.232 0.176 0.595l0.025 0.438h-1.277l0.025-0.432c0.025-0.451 0.125-0.645 0.395-0.764 0.188-0.081 0.482-0.006 0.657 0.163zM27.711 1.46c0.125 0.132 0.156 0.232 0.175 0.595l0.025 0.438h-1.277l0.025-0.432c0.025-0.451 0.125-0.645 0.395-0.764 0.188-0.081 0.482-0.006 0.658 0.163zM2.861 4.383c0.031 0.763 0.151 1.089 0.551 1.489 0.313 0.313 0.708 0.501 1.159 0.545 0.325 0.031 0.351 0.025 0.563-0.188 0.156-0.156 0.219-0.275 0.219-0.42 0-0.275-0.319-0.595-0.663-0.644-0.16-0.028-0.299-0.101-0.408-0.206l0 0c-0.131-0.138-0.149-0.232-0.175-0.689l-0.019-0.526h6.263l0.025 0.639c0.031 0.763 0.15 1.089 0.551 1.489 0.298 0.302 0.698 0.503 1.145 0.544l0.007 0.001c0.301 0.031 0.351 0.019 0.545-0.156 0.176-0.156 0.213-0.232 0.213-0.451 0-0.213-0.038-0.294-0.194-0.432-0.121-0.106-0.272-0.182-0.439-0.212l-0.006-0.001c-0.157-0.029-0.294-0.102-0.401-0.206l0 0c-0.132-0.137-0.15-0.231-0.176-0.688l-0.018-0.526h6.262l0.026 0.639c0.031 0.763 0.149 1.089 0.55 1.489 0.298 0.302 0.698 0.503 1.145 0.544l0.007 0.001c0.302 0.031 0.351 0.019 0.545-0.156 0.175-0.156 0.213-0.232 0.213-0.451 0-0.213-0.038-0.294-0.195-0.432-0.121-0.106-0.272-0.182-0.439-0.212l-0.006-0.001c-0.157-0.029-0.294-0.102-0.401-0.206l0 0c-0.131-0.137-0.149-0.231-0.175-0.688l-0.018-0.526h6.262l0.025 0.639c0.031 0.763 0.15 1.089 0.551 1.489 0.298 0.302 0.698 0.503 1.145 0.544l0.007 0.001c0.301 0.031 0.351 0.019 0.545-0.156 0.175-0.156 0.213-0.232 0.213-0.451 0-0.213-0.038-0.294-0.194-0.432-0.121-0.106-0.272-0.182-0.439-0.212l-0.006-0.001c-0.157-0.029-0.294-0.102-0.401-0.206l0 0c-0.132-0.137-0.15-0.231-0.175-0.688l-0.019-0.532 3.77 0.038 0.169 0.176 0.176 0.169 0.018 1.877 0.019 1.877h-29.571l0.019-1.87c0.018-1.771 0.025-1.878 0.144-2.010 0.188-0.206 0.32-0.244 0.914-0.244l0.545-0.006 0.025 0.639zM30.766 19.765l-0.018 10.638-0.176 0.169-0.169 0.176h-28.806l-0.169-0.176-0.176-0.169-0.018-10.639-0.013-10.639h29.558l-0.013 10.638z"></path>
<path d="M7.014 10.434c-0.388 0.163-0.508 0.688-0.213 0.976 0.087 0.087 0.263 0.175 0.388 0.201 0.201 0.031 0.257 0.006 0.451-0.188 0.294-0.294 0.301-0.538 0.007-0.833-0.213-0.213-0.383-0.256-0.633-0.156zM9.512 10.441c-0.201 0.081-0.4 0.369-0.4 0.569 0 0.113 0.068 0.257 0.181 0.383l0.181 0.206 15.474 0.031 0.206-0.181c0.169-0.151 0.206-0.225 0.206-0.444s-0.037-0.294-0.206-0.444l-0.201-0.181-7.659 0.006c-4.208 0-7.715 0.025-7.784 0.056zM4.508 14.189c-0.096 0.053-0.179 0.118-0.249 0.194l-0.001 0.001c-0.119 0.132-0.125 0.225-0.125 2.885v2.748l0.175 0.169 0.169 0.176 5.441 0.038 0.207-0.188 0.206-0.182v-5.532l-0.206-0.181-0.201-0.181-2.649 0.006c-1.453 0-2.699 0.025-2.768 0.050zM9.111 17.262v1.877h-3.757v-3.755h3.757v1.877zM13.27 14.195c-0.075 0.025-0.194 0.132-0.269 0.225-0.132 0.163-0.132 0.206-0.132 2.847v2.685l0.181 0.2 0.181 0.206 5.454 0.038 0.207-0.188 0.206-0.182v-5.532l-0.206-0.181-0.2-0.181-2.65 0.006c-1.453 0-2.705 0.025-2.773 0.057zM17.879 17.262v1.877h-3.758v-3.755h3.758v1.877zM22.037 14.195c-0.075 0.025-0.195 0.132-0.27 0.225-0.131 0.163-0.131 0.206-0.131 2.847v2.685l0.181 0.2 0.181 0.206 5.454 0.038 0.207-0.188 0.207-0.182v-5.532l-0.206-0.181-0.201-0.181-2.649 0.006c-1.454 0-2.706 0.025-2.775 0.057zM26.645 17.262v1.877h-3.756v-3.755h3.758v1.877zM4.508 21.699c-0.096 0.053-0.179 0.118-0.249 0.194l-0.001 0.001c-0.119 0.132-0.125 0.225-0.125 2.885v2.748l0.175 0.169 0.169 0.176 5.441 0.037 0.207-0.188 0.206-0.181v-5.532l-0.206-0.181-0.201-0.181-2.649 0.006c-1.453 0-2.699 0.025-2.768 0.050zM9.111 24.772v1.877h-3.757v-3.755h3.757v1.877zM13.27 21.705c-0.075 0.025-0.194 0.132-0.269 0.225-0.132 0.163-0.132 0.206-0.132 2.847v2.685l0.181 0.2 0.181 0.206 5.454 0.038 0.207-0.188 0.206-0.181v-5.532l-0.206-0.181-0.2-0.181-2.65 0.006c-1.453 0-2.705 0.025-2.773 0.056zM17.879 24.772v1.877h-3.758v-3.755h3.758v1.877zM22.037 21.705c-0.075 0.025-0.195 0.132-0.27 0.225-0.131 0.163-0.131 0.206-0.131 2.847v2.685l0.181 0.2 0.181 0.206 5.454 0.038 0.207-0.188 0.207-0.181v-5.532l-0.206-0.181-0.201-0.181-2.649 0.006c-1.454 0-2.706 0.025-2.775 0.056zM26.645 24.772v1.877h-3.756v-3.755h3.758v1.877z"></path>
</symbol>
<symbol id="icon-people" viewBox="0 0 33 32">
<path d="M12.091 0.058c-3.236 0.313-5.556 2.395-6.224 5.581-0.165 0.779-0.197 2.094-0.070 2.95 0.241 1.628 0.833 3.078 1.825 4.47 0.21 0.287 0.375 0.53 0.375 0.549 0 0.013-0.133 0.077-0.299 0.141-0.527 0.198-1.659 0.785-2.2 1.136-2.911 1.909-4.774 4.975-5.353 8.793-0.127 0.875-0.191 2.682-0.108 3.436 0.076 0.728 0.121 0.785 1.049 1.34 3.248 1.935 6.294 3.039 9.523 3.436 1.030 0.134 3.344 0.147 4.317 0.031 2.224-0.262 4.26-0.798 6.294-1.667 0.541-0.222 0.905-0.387 1.265-0.56l-0.158 0.069c0.241-0.128 0.248-0.128 0.731-0.006 0.636 0.166 2.206 0.223 2.937 0.115 1.176-0.166 2.485-0.734 3.503-1.5 2.441-1.846 3.548-5.032 2.791-8.027-0.751-2.903-3.069-5.115-5.976-5.701l-0.050-0.008c-0.756-0.147-2.098-0.153-2.835-0.006-0.611 0.122-1.494 0.422-1.971 0.658l-0.305 0.159-0.674-0.453c-0.631-0.436-1.353-0.832-2.114-1.152l-0.079-0.029-0.49-0.198 0.362-0.492c1.851-2.503 2.448-5.747 1.552-8.41-0.388-1.144-0.954-2.037-1.799-2.829-1.113-1.053-2.512-1.66-4.248-1.832-0.718-0.070-0.813-0.070-1.57 0.006zM14.291 1.687c3.281 0.677 4.985 3.87 4.037 7.592-0.617 2.433-2.6 4.808-4.508 5.389-0.813 0.249-1.691 0.154-2.511-0.281-1.608-0.856-3.039-2.669-3.687-4.674-0.286-0.901-0.356-1.367-0.356-2.446 0.006-0.805 0.031-1.098 0.146-1.565 0.185-0.747 0.674-1.743 1.119-2.279 1.259-1.507 3.522-2.19 5.76-1.736zM9.752 15.224c1.748 1.258 3.611 1.45 5.385 0.562 0.369-0.186 0.776-0.447 1.329-0.85 0.146-0.108 0.489-0.019 1.449 0.39 0.611 0.255 1.736 0.888 1.812 1.009 0.026 0.038-0.19 0.313-0.471 0.607-1.869 1.96-2.562 4.795-1.812 7.432 0.21 0.741 0.757 1.839 1.228 2.471 0.425 0.575 1.201 1.341 1.71 1.686 0.178 0.121 0.331 0.236 0.331 0.255 0 0.051-1.1 0.479-1.889 0.741-4.317 1.418-8.691 1.291-12.963-0.396-1.043-0.409-2.308-1.022-3.376-1.635-1.081-0.62-1.011-0.46-0.954-2.088 0.070-2.038 0.451-3.646 1.252-5.243 1.183-2.363 3.293-4.221 5.786-5.108 0.299-0.102 0.572-0.191 0.616-0.191 0.038 0 0.299 0.159 0.567 0.357zM25.576 16.086c1.443 0.178 2.759 0.855 3.764 1.928 0.509 0.549 0.737 0.888 1.074 1.603 0.42 0.894 0.559 1.545 0.559 2.625 0 0.708-0.025 1.009-0.14 1.462-0.464 1.858-1.838 3.493-3.56 4.221-0.909 0.383-1.265 0.447-2.46 0.447-0.935 0-1.151-0.019-1.583-0.147-1.532-0.441-2.893-1.488-3.688-2.81-0.356-0.6-0.699-1.558-0.807-2.247-0.102-0.664-0.038-1.878 0.133-2.522 0.699-2.631 3.121-4.547 5.849-4.623 0.159 0 0.547 0.026 0.858 0.064z"></path>
<path d="M27.928 19.406c-0.070 0.038-0.985 0.932-2.034 1.98l-1.907 1.91-1.049-1.060c-0.578-0.581-1.125-1.099-1.22-1.149-0.63-0.332-1.316 0.402-0.979 1.047 0.115 0.205 2.747 2.842 2.944 2.943 0.178 0.089 0.432 0.089 0.61 0 0.197-0.102 4.546-4.457 4.66-4.668 0.114-0.223 0.114-0.396-0.013-0.664-0.172-0.357-0.667-0.524-1.011-0.338z"></path>
</symbol>
<symbol id="icon-lamp" viewBox="0 0 27 32">
<path d="M12.855 0.066c-0.27 0.154-0.27 0.185-0.276 2.123 0 1.759 0.006 1.857 0.123 1.98 0.061 0.074 0.178 0.148 0.245 0.173 0.184 0.062 0.46-0.074 0.546-0.253 0.043-0.105 0.068-0.747 0.068-1.944v-1.796l-0.178-0.179c-0.19-0.191-0.332-0.216-0.527-0.105zM5.003 2.429c-0.172 0.173-0.19 0.333-0.062 0.58 0.215 0.42 1.773 2.825 1.908 2.949 0.313 0.284 0.761 0.074 0.761-0.345 0-0.198-0.148-0.469-0.89-1.647-0.491-0.777-0.963-1.475-1.049-1.555-0.203-0.179-0.478-0.179-0.668 0.018zM20.843 2.441c-0.141 0.037-2.19 3.122-2.19 3.295 0 0.16 0.319 0.487 0.472 0.487 0.061 0 0.178-0.043 0.257-0.098 0.209-0.148 2.092-3.023 2.092-3.202 0-0.228-0.061-0.34-0.251-0.432-0.178-0.092-0.196-0.099-0.38-0.049zM12.703 6.822c-1.147 0.056-2.172 0.34-3.276 0.901-1.601 0.821-2.846 2.11-3.632 3.777-1.031 2.184-1.006 4.782 0.062 6.984 0.399 0.821 0.81 1.407 1.54 2.178 0.35 0.377 0.718 0.827 0.816 1.006 0.393 0.685 0.62 1.641 0.669 2.82 0.037 0.753 0.049 0.839 0.178 0.968l0.141 0.142h7.779l0.141-0.154c0.123-0.136 0.148-0.222 0.166-0.753 0.043-1.265 0.295-2.4 0.675-3.054 0.098-0.161 0.472-0.617 0.84-1.018 0.779-0.852 1.172-1.413 1.576-2.265 0.644-1.363 0.902-2.912 0.73-4.356-0.11-0.913-0.447-2.030-0.834-2.795-0.203-0.389-0.755-1.191-1.117-1.611-1.319-1.524-3.343-2.579-5.227-2.721-0.252-0.018-0.558-0.043-0.675-0.050-0.083-0.006-0.179-0.009-0.276-0.009s-0.193 0.003-0.289 0.010l0.013-0.001zM14.156 7.859c1.46 0.241 2.724 0.863 3.785 1.881 0.896 0.858 1.485 1.796 1.841 2.919 0.276 0.864 0.35 1.351 0.35 2.258-0.006 1.907-0.705 3.666-1.988 4.961-0.767 0.777-1.092 1.277-1.417 2.203-0.19 0.519-0.405 1.703-0.405 2.197v0.333h-6.43l-0.037-0.142c-0.023-0.123-0.037-0.264-0.037-0.409 0-0.004 0-0.007 0-0.011v0.001c0-0.444-0.172-1.327-0.375-1.938-0.282-0.845-0.607-1.369-1.387-2.203-0.754-0.808-1.141-1.376-1.49-2.196-1.491-3.486-0.012-7.534 3.362-9.2 0.736-0.364 1.337-0.543 2.344-0.703 0.374-0.062 1.368-0.037 1.883 0.050z"></path>
<path d="M12.855 8.945c-0.313 0.191-0.362 0.506-0.123 0.747 0.129 0.136 0.227 0.16 0.693 0.191 1.926 0.148 3.55 1.307 4.354 2.943l0.014 0.031c0.344 0.71 0.479 1.179 0.527 1.864 0.037 0.549 0.117 0.802 0.277 0.882 0.19 0.105 0.423 0.068 0.577-0.092 0.135-0.129 0.153-0.203 0.153-0.555 0-0.228-0.055-0.697-0.129-1.036-0.466-2.338-2.264-4.245-4.545-4.825-0.725-0.179-1.62-0.253-1.798-0.148zM0.353 7.587c-0.356 0.099-0.473 0.537-0.209 0.777s3.11 1.746 3.294 1.746c0.374 0 0.577-0.494 0.325-0.79-0.104-0.117-2.785-1.617-3.098-1.733-0.047-0.012-0.101-0.019-0.156-0.019s-0.109 0.007-0.161 0.019l0.005-0.001zM25.523 7.563c-0.264 0.105-3.055 1.647-3.153 1.746-0.289 0.284-0.068 0.802 0.325 0.802 0.178 0 3.061-1.524 3.307-1.746 0.172-0.16 0.184-0.487 0.012-0.66-0.067-0.068-0.147-0.123-0.178-0.123s-0.092-0.012-0.141-0.024c-0.023-0.007-0.050-0.011-0.077-0.011-0.034 0-0.067 0.006-0.097 0.018l0.002-0.001zM9.628 26.209c-0.565 0.117-0.975 0.604-0.975 1.166 0 0.543 0.227 0.907 0.705 1.129 0.227 0.105 0.466 0.117 3.656 0.117 2.393 0 3.473-0.018 3.62-0.068 1.037-0.351 1.154-1.752 0.184-2.227l-0.281-0.142-3.344-0.012c-1.84 0-3.441 0.012-3.564 0.037zM16.431 27.214c0.044 0.041 0.071 0.099 0.071 0.163 0 0.083-0.045 0.155-0.112 0.194l-0.001 0.001c-0.079 0.037-1.233 0.062-3.319 0.062s-3.24-0.025-3.319-0.062c-0.111-0.062-0.16-0.308-0.074-0.389 0.019-0.025 1.534-0.043 3.362-0.043 2.497 0 3.337 0.018 3.393 0.074zM10.524 29.17c-0.276 0.068-0.423 0.167-0.632 0.401-0.516 0.593-0.338 1.499 0.367 1.851l0.32 0.161h2.472c2.699 0 2.736-0.006 3.105-0.358 0.264-0.253 0.367-0.5 0.367-0.876s-0.104-0.629-0.367-0.87c-0.362-0.34-0.295-0.334-2.963-0.345-1.369-0.006-2.565 0.012-2.669 0.037zM15.53 30.237c0.061 0.111 0.049 0.148-0.068 0.247-0.129 0.105-0.301 0.111-2.356 0.111-1.215 0-2.276-0.018-2.35-0.037-0.166-0.043-0.239-0.247-0.141-0.364 0.068-0.081 0.454-0.093 2.46-0.093h2.38l0.074 0.136z"></path>
</symbol>
<symbol id="icon-arrow-change-language" viewBox="0 0 32 32">
<path d="M21.731 12.397l-6.525 6.527c-0.305 0.304 1.893 0.304 1.591 0l-6.527-6.527c-0.226-0.245-0.549-0.398-0.908-0.398-0.010 0-0.020 0-0.030 0l0.001-0c-0.725 0-1.333 0.608-1.333 1.333 0 0.373 0.14 0.701 0.397 0.936l6.527 6.527c0.273 0.281 0.654 0.456 1.076 0.456s0.803-0.175 1.076-0.456l0-0 6.527-6.527c0.245-0.227 0.398-0.55 0.398-0.908 0-0.010-0-0.020-0-0.029l0 0.001c0-0.725-0.608-1.333-1.333-1.333-0.008-0-0.018-0-0.028-0-0.359 0-0.682 0.153-0.907 0.397l-0.001 0.001z"></path>
</symbol>
<symbol id="icon-telephone" viewBox="0 0 32 32">
<path d="M24.327 21.169c-1.045-1.033-2.351-1.033-3.389 0-0.792 0.785-1.584 1.571-2.363 2.369-0.213 0.22-0.393 0.267-0.653 0.12-0.512-0.28-1.059-0.507-1.552-0.812-2.296-1.445-4.221-3.303-5.925-5.393-0.845-1.040-1.599-2.151-2.124-3.403-0.107-0.253-0.087-0.42 0.12-0.627 0.792-0.765 1.564-1.551 2.344-2.336 1.085-1.093 1.085-2.371-0.007-3.469-0.62-0.627-1.24-1.24-1.859-1.865-0.64-0.64-1.272-1.284-1.917-1.917-1.045-1.019-2.351-1.019-3.389 0.007-0.8 0.787-1.564 1.592-2.377 2.364-0.752 0.712-1.132 1.585-1.212 2.604-0.125 1.657 0.28 3.223 0.853 4.747 1.172 3.157 2.956 5.96 5.12 8.531 2.923 3.476 6.413 6.227 10.493 8.211 1.839 0.892 3.743 1.577 5.813 1.691 1.425 0.080 2.664-0.28 3.656-1.392 0.68-0.76 1.444-1.451 2.164-2.177 1.065-1.079 1.072-2.384 0.013-3.449-1.267-1.272-2.537-2.536-3.809-3.801zM23.049 15.861l2.457-0.419c-0.409-2.336-1.505-4.366-3.069-5.926l-0-0c-1.636-1.646-3.792-2.774-6.201-3.116l-0.058-0.007-0.347 2.471c1.91 0.27 3.58 1.143 4.848 2.416l0 0c1.209 1.206 2.056 2.776 2.362 4.531l0.007 0.051zM26.899 5.18c-2.714-2.732-6.293-4.603-10.29-5.169l-0.096-0.011-0.347 2.471c3.537 0.502 6.628 2.118 8.976 4.474l0 0c2.244 2.234 3.816 5.142 4.386 8.395l0.014 0.094 2.459-0.419c-0.682-3.877-2.503-7.245-5.101-9.836l-0-0z"></path>
</symbol>
<symbol id="icon-chevron" viewBox="0 0 18 32">
<path d="M16.629 1.148c0.161 0.161 0.261 0.383 0.261 0.629s-0.1 0.468-0.261 0.629l-13.595 13.593 13.595 13.593c0.161 0.161 0.261 0.384 0.261 0.629 0 0.491-0.398 0.889-0.889 0.889-0.245 0-0.468-0.099-0.628-0.26v0l-14.852-14.852 14.852-14.852c0.161-0.161 0.383-0.26 0.628-0.26s0.468 0.099 0.628 0.26v0z"></path>
</symbol>

</defs>
</svg>
