<svg xmlns="http://www.w3.org/2000/svg" width="216" height="216" fill="none"><path fill="#F96739" d="M10.191 19.524c5.628 0 10.191-4.37 10.191-9.762C20.382 4.371 15.82 0 10.192 0 4.561 0 0 4.37 0 9.762s4.563 9.762 10.191 9.762ZM54.092 9.572c0 5.1-4.317 9.235-9.641 9.235-5.325 0-9.641-4.135-9.641-9.235S39.126.337 44.45.337c5.325 0 9.642 4.135 9.642 9.235ZM85.222 9.567c0 4.78-4.045 8.654-9.035 8.654s-9.035-3.874-9.035-8.654c0-4.78 4.045-8.655 9.035-8.655s9.035 3.875 9.035 8.655ZM115.15 9.392c0 4.392-3.715 7.95-8.299 7.95-4.585 0-8.3-3.558-8.3-7.95 0-4.391 3.715-7.95 8.3-7.95 4.584 0 8.299 3.559 8.299 7.95ZM143.542 9.762c0 4.15-3.51 7.512-7.842 7.512s-7.843-3.362-7.843-7.512c0-4.15 3.511-7.512 7.843-7.512s7.842 3.362 7.842 7.512ZM169.586 9.766c0 3.889-3.294 7.045-7.354 7.045-4.06 0-7.354-3.156-7.354-7.045 0-3.89 3.294-7.045 7.354-7.045 4.06 0 7.354 3.15 7.354 7.045ZM194.012 9.764c0 3.634-3.074 6.578-6.872 6.578-3.792 0-6.866-2.944-6.866-6.578 0-3.633 3.074-6.581 6.866-6.581 3.798 0 6.872 2.943 6.872 6.581ZM216 9.765c0 3.328-2.817 6.025-6.291 6.025s-6.29-2.697-6.29-6.025c0-3.328 2.816-6.026 6.29-6.026S216 6.437 216 9.765ZM10.191 47.59c5.628 0 10.191-4.37 10.191-9.762s-4.563-9.762-10.19-9.762C4.561 28.066 0 32.436 0 37.828c0 5.391 4.563 9.762 10.191 9.762ZM54.092 37.64c0 5.1-4.317 9.235-9.641 9.235-5.325 0-9.641-4.136-9.641-9.236 0-5.1 4.316-9.235 9.64-9.235 5.325-.005 9.642 4.135 9.642 9.235ZM85.222 37.644c0 4.78-4.045 8.655-9.035 8.655s-9.035-3.874-9.035-8.655c0-4.78 4.045-8.654 9.035-8.654s9.035 3.874 9.035 8.654ZM115.15 37.45c0 4.39-3.715 7.95-8.299 7.95-4.585 0-8.3-3.56-8.3-7.95 0-4.392 3.715-7.951 8.3-7.951 4.584.005 8.299 3.56 8.299 7.95ZM143.542 37.828c0 4.15-3.51 7.512-7.842 7.512s-7.843-3.362-7.843-7.512c0-4.15 3.511-7.512 7.843-7.512s7.842 3.367 7.842 7.512ZM169.586 37.833c0 3.89-3.294 7.045-7.354 7.045-4.06 0-7.354-3.156-7.354-7.045s3.294-7.044 7.354-7.044c4.06 0 7.354 3.155 7.354 7.044ZM194.012 37.83c0 3.633-3.074 6.577-6.872 6.577-3.792 0-6.866-2.944-6.866-6.577s3.074-6.582 6.866-6.582c3.798.005 6.872 2.949 6.872 6.582ZM216 37.832c0 3.328-2.817 6.026-6.291 6.026s-6.29-2.698-6.29-6.026 2.816-6.025 6.29-6.025S216 34.505 216 37.832ZM10.191 75.658c5.628 0 10.191-4.371 10.191-9.763 0-5.391-4.563-9.762-10.19-9.762C4.561 56.133 0 60.504 0 65.895c0 5.392 4.563 9.763 10.191 9.763ZM54.092 65.705c0 5.1-4.317 9.236-9.641 9.236-5.325 0-9.641-4.136-9.641-9.236 0-5.1 4.316-9.235 9.64-9.235 5.325 0 9.642 4.135 9.642 9.235ZM85.222 65.71c0 4.78-4.045 8.655-9.035 8.655s-9.035-3.875-9.035-8.655c0-4.78 4.045-8.654 9.035-8.654s9.035 3.874 9.035 8.654ZM115.15 65.526c0 4.39-3.715 7.95-8.299 7.95-4.585 0-8.3-3.56-8.3-7.95 0-4.392 3.715-7.951 8.3-7.951 4.584 0 8.299 3.56 8.299 7.95ZM143.542 65.895c0 4.15-3.51 7.513-7.842 7.513s-7.843-3.363-7.843-7.513 3.511-7.512 7.843-7.512 7.842 3.362 7.842 7.512ZM169.586 65.9c0 3.888-3.294 7.044-7.354 7.044-4.06 0-7.354-3.156-7.354-7.045s3.294-7.045 7.354-7.045c4.06 0 7.354 3.156 7.354 7.045ZM194.012 65.897c0 3.634-3.074 6.578-6.872 6.578-3.792 0-6.866-2.944-6.866-6.578 0-3.633 3.074-6.581 6.866-6.581 3.798 0 6.872 2.948 6.872 6.581ZM216 65.898c0 3.328-2.817 6.026-6.291 6.026s-6.29-2.698-6.29-6.026 2.816-6.026 6.29-6.026S216 62.57 216 65.898ZM10.191 103.734c5.628 0 10.191-4.371 10.191-9.763 0-5.391-4.563-9.762-10.19-9.762C4.561 84.21 0 88.58 0 93.971s4.563 9.763 10.191 9.763ZM54.092 93.781c0 5.1-4.317 9.235-9.641 9.235-5.325 0-9.641-4.135-9.641-9.235s4.316-9.235 9.64-9.235c5.325 0 9.642 4.135 9.642 9.235ZM85.222 93.776c0 4.78-4.045 8.654-9.035 8.654s-9.035-3.874-9.035-8.654c0-4.78 4.045-8.654 9.035-8.654s9.035 3.874 9.035 8.654ZM115.15 93.593c0 4.391-3.715 7.95-8.299 7.95-4.585 0-8.3-3.559-8.3-7.95s3.715-7.95 8.3-7.95c4.584.004 8.299 3.564 8.299 7.95ZM143.542 93.97c0 4.15-3.51 7.512-7.842 7.512s-7.843-3.362-7.843-7.512c0-4.15 3.511-7.513 7.843-7.513s7.842 3.363 7.842 7.513ZM169.586 93.967c0 3.889-3.294 7.044-7.354 7.044-4.06 0-7.354-3.155-7.354-7.044 0-3.89 3.294-7.045 7.354-7.045 4.06 0 7.354 3.15 7.354 7.045ZM194.012 93.963c0 3.633-3.074 6.577-6.872 6.577-3.792 0-6.866-2.944-6.866-6.577s3.074-6.582 6.866-6.582c3.798 0 6.872 2.944 6.872 6.582ZM216 93.966c0 3.328-2.817 6.025-6.291 6.025s-6.29-2.698-6.29-6.025c0-3.328 2.816-6.026 6.29-6.026S216 90.638 216 93.966ZM10.191 131.799c5.628 0 10.191-4.37 10.191-9.762 0-5.391-4.563-9.762-10.19-9.762-5.63 0-10.192 4.371-10.192 9.762 0 5.392 4.563 9.762 10.191 9.762ZM54.092 121.837c0 5.1-4.317 9.235-9.641 9.235-5.325 0-9.641-4.135-9.641-9.235s4.316-9.236 9.64-9.236c5.325 0 9.642 4.136 9.642 9.236ZM85.222 121.843c0 4.781-4.045 8.655-9.035 8.655s-9.035-3.874-9.035-8.655c0-4.78 4.045-8.654 9.035-8.654 4.99.005 9.035 3.879 9.035 8.654ZM115.15 121.659c0 4.391-3.715 7.95-8.299 7.95-4.585 0-8.3-3.559-8.3-7.95 0-4.392 3.715-7.951 8.3-7.951 4.584 0 8.299 3.559 8.299 7.951ZM143.542 122.037c0 4.15-3.51 7.512-7.842 7.512s-7.843-3.362-7.843-7.512c0-4.15 3.511-7.512 7.843-7.512s7.842 3.362 7.842 7.512ZM169.586 122.031c0 3.889-3.294 7.044-7.354 7.044-4.06 0-7.354-3.155-7.354-7.044 0-3.89 3.294-7.045 7.354-7.045 4.06 0 7.354 3.155 7.354 7.045ZM194.012 122.034c0 3.633-3.074 6.577-6.872 6.577-3.792 0-6.866-2.944-6.866-6.577s3.074-6.577 6.866-6.577c3.798 0 6.872 2.944 6.872 6.577ZM216 122.031c0 3.328-2.817 6.026-6.291 6.026s-6.29-2.698-6.29-6.026c0-3.327 2.816-6.025 6.29-6.025s6.291 2.698 6.291 6.025ZM20.382 150.105c0 5.39-4.564 9.762-10.19 9.762-5.628 0-10.192-4.372-10.192-9.762 0-5.391 4.564-9.762 10.191-9.762 5.627 0 10.191 4.366 10.191 9.762ZM54.092 149.913c0 5.1-4.317 9.235-9.641 9.235-5.325 0-9.641-4.135-9.641-9.235s4.316-9.236 9.64-9.236c5.325 0 9.642 4.136 9.642 9.236ZM85.222 149.909c0 4.78-4.045 8.655-9.035 8.655s-9.035-3.875-9.035-8.655c0-4.78 4.045-8.654 9.035-8.654s9.035 3.874 9.035 8.654ZM115.15 149.735c0 4.391-3.715 7.95-8.299 7.95-4.585 0-8.3-3.559-8.3-7.95 0-4.392 3.715-7.951 8.3-7.951 4.584 0 8.299 3.559 8.299 7.951ZM143.542 150.103c0 4.15-3.51 7.512-7.842 7.512s-7.843-3.362-7.843-7.512c0-4.15 3.511-7.513 7.843-7.513s7.842 3.363 7.842 7.513ZM169.586 150.108c0 3.89-3.294 7.045-7.354 7.045-4.06 0-7.354-3.155-7.354-7.045 0-3.889 3.294-7.044 7.354-7.044 4.06 0 7.354 3.155 7.354 7.044ZM194.012 150.102c0 3.633-3.074 6.577-6.872 6.577-3.792 0-6.866-2.944-6.866-6.577s3.074-6.577 6.866-6.577c3.798-.005 6.872 2.944 6.872 6.577ZM216 150.107c0 3.328-2.817 6.026-6.291 6.026s-6.29-2.698-6.29-6.026c0-3.327 2.816-6.025 6.29-6.025S216 146.78 216 150.107ZM20.382 178.17c0 5.391-4.564 9.762-10.19 9.762C4.563 187.932 0 183.561 0 178.17c0-5.39 4.564-9.762 10.191-9.762 5.627 0 10.191 4.372 10.191 9.762ZM54.092 177.978c0 5.1-4.317 9.236-9.641 9.236-5.325 0-9.641-4.136-9.641-9.236 0-5.1 4.316-9.235 9.64-9.235 5.325 0 9.642 4.135 9.642 9.235ZM85.222 177.985c0 4.78-4.045 8.654-9.035 8.654s-9.035-3.874-9.035-8.654c0-4.78 4.045-8.654 9.035-8.654s9.035 3.874 9.035 8.654ZM115.15 177.79c0 4.392-3.715 7.951-8.299 7.951-4.585 0-8.3-3.559-8.3-7.951 0-4.391 3.715-7.95 8.3-7.95 4.584.005 8.299 3.559 8.299 7.95ZM143.542 178.17c0 4.15-3.51 7.513-7.842 7.513s-7.843-3.363-7.843-7.513 3.511-7.512 7.843-7.512 7.842 3.362 7.842 7.512ZM169.586 178.172c0 3.889-3.294 7.045-7.354 7.045-4.06 0-7.354-3.156-7.354-7.045s3.294-7.044 7.354-7.044c4.06 0 7.354 3.155 7.354 7.044ZM194.012 178.168c0 3.633-3.074 6.582-6.872 6.582-3.792 0-6.866-2.944-6.866-6.582 0-3.634 3.074-6.577 6.866-6.577 3.798 0 6.872 2.943 6.872 6.577ZM216 178.173c0 3.328-2.817 6.026-6.291 6.026s-6.29-2.698-6.29-6.026 2.816-6.026 6.29-6.026c3.474.005 6.291 2.698 6.291 6.026ZM20.382 206.238c0 5.39-4.564 9.762-10.19 9.762C4.563 216 0 211.628 0 206.238c0-5.391 4.564-9.762 10.191-9.762 5.627 0 10.191 4.371 10.191 9.762ZM54.092 206.046c0 5.1-4.317 9.235-9.641 9.235-5.325 0-9.641-4.135-9.641-9.235s4.316-9.235 9.64-9.235c5.325 0 9.642 4.135 9.642 9.235ZM85.222 206.051c0 4.78-4.045 8.654-9.035 8.654s-9.035-3.874-9.035-8.654c0-4.78 4.045-8.655 9.035-8.655 4.99.005 9.035 3.88 9.035 8.655ZM115.15 205.868c0 4.391-3.715 7.95-8.299 7.95-4.585 0-8.3-3.559-8.3-7.95s3.715-7.951 8.3-7.951c4.584 0 8.299 3.56 8.299 7.951ZM143.542 206.236c0 4.15-3.51 7.512-7.842 7.512s-7.843-3.362-7.843-7.512c0-4.15 3.511-7.512 7.843-7.512s7.842 3.362 7.842 7.512ZM169.586 206.24c0 3.889-3.294 7.044-7.354 7.044-4.06 0-7.354-3.155-7.354-7.044s3.294-7.045 7.354-7.045c4.06 0 7.354 3.156 7.354 7.045ZM194.012 206.244c0 3.633-3.074 6.581-6.872 6.581-3.792 0-6.866-2.943-6.866-6.581 0-3.634 3.074-6.577 6.866-6.577 3.798 0 6.872 2.943 6.872 6.577ZM216 206.241c0 3.328-2.817 6.025-6.291 6.025s-6.29-2.697-6.29-6.025c0-3.328 2.816-6.026 6.29-6.026s6.291 2.698 6.291 6.026Z"/></svg>